<svg width="41" height="41" viewBox="0 0 41 41" fill="none" xmlns="http://www.w3.org/2000/svg">
<path d="M0.5 20.167C0.5 31.2127 9.45431 40.167 20.5 40.167C31.5457 40.167 40.5 31.2127 40.5 20.167C40.5 9.1213 31.5457 0.166992 20.5 0.166992C9.45431 0.166992 0.5 9.1213 0.5 20.167Z" fill="#B0B0B0"/>
<path d="M30.5 20.167C30.5 14.667 26 10.167 20.5 10.167C15 10.167 10.5 14.667 10.5 20.167C10.5 25.167 14.125 29.292 18.875 30.042V23.042H16.375V20.167H18.875V17.917C18.875 15.417 20.375 14.042 22.625 14.042C23.75 14.042 24.875 14.292 24.875 14.292V16.792H23.625C22.375 16.792 22 17.542 22 18.292V20.167H24.75L24.25 23.042H21.875V30.167C26.875 29.417 30.5 25.167 30.5 20.167Z" fill="white"/>
</svg>
