<svg width="20" height="26" viewBox="0 0 20 26" fill="none" xmlns="http://www.w3.org/2000/svg">
<mask id="mask0_227_7050" style="mask-type:luminance" maskUnits="userSpaceOnUse" x="0" y="0" width="20" height="26">
<path d="M0 0.936523H20V25.4849H0V0.936523Z" fill="white"/>
</mask>
<g mask="url(#mask0_227_7050)">
<path d="M5.13791 25.4626C5.04794 25.4842 4.97483 25.4626 4.85053 25.3726C4.77299 25.3211 4.76441 25.304 4.76441 25.2439C4.76441 25.1838 4.82449 25.1279 4.91475 25.1063C4.93636 25.1021 4.96211 25.085 4.97069 25.0678C4.992 25.0335 5.03077 24.9947 5.09085 24.9518C5.12518 24.9219 5.13791 24.9047 5.13791 24.879C5.14235 24.7973 5.23232 24.7328 5.37409 24.707L5.45992 24.6943L5.54575 24.5655C5.64874 24.411 5.88048 24.0417 5.91481 23.9686C5.92784 23.9387 5.95358 23.87 5.97075 23.8055C5.98792 23.7454 6.02225 23.6383 6.048 23.5652C6.07375 23.4921 6.10808 23.3849 6.1208 23.3249C6.15099 23.1745 6.1723 22.8738 6.15957 22.7323L6.15099 22.6163L6.05658 22.6077C5.945 22.5992 5.85917 22.5693 5.72185 22.4917C5.47264 22.3544 5.40842 22.2772 5.40842 22.1096C5.40842 22.0581 5.42559 21.9208 5.4469 21.7965C5.48123 21.5947 5.48567 21.5517 5.48567 21.3369C5.48567 21.1395 5.47708 21.0622 5.45134 20.8775C5.40398 20.5641 5.3954 20.4656 5.38267 20.1092C5.36965 19.7399 5.36107 19.607 5.30957 19.1174C5.2924 18.9242 5.27109 18.7223 5.26665 18.6708C5.26251 18.598 5.22818 18.4779 5.1166 18.1428C4.91919 17.5332 4.84165 17.194 4.84165 16.9495C4.84165 16.8376 4.84609 16.8163 4.88486 16.7048C4.91061 16.6361 4.97069 16.4899 5.02219 16.3828C5.07369 16.2712 5.15952 16.0735 5.21101 15.9406C5.43417 15.3865 5.54131 15.1507 5.70882 14.8544C5.83757 14.6268 5.94056 14.4551 6.04356 14.3134C6.16816 14.1373 6.16372 14.1373 6.20663 14.013C6.22824 13.9485 6.28832 13.7768 6.33982 13.635C6.39131 13.4891 6.48129 13.2272 6.53722 13.047C6.64022 12.7249 6.7003 12.5832 6.84207 12.3085L6.91073 12.1798L6.84621 12.1067C6.81188 12.0679 6.77755 12.0336 6.77755 12.0336C6.7734 12.0336 6.74765 12.0851 6.71747 12.154C6.62749 12.36 6.25813 13.0082 6.09091 13.2574C5.8204 13.6566 5.49425 14.0473 5.24949 14.2574C5.03492 14.4466 4.72149 14.6268 4.6185 14.6268C4.58416 14.6268 4.57144 14.6182 4.54125 14.5753C4.51994 14.5451 4.48117 14.4765 4.45542 14.425C4.3912 14.2962 4.24085 13.9141 4.24085 13.8839C4.24085 13.8668 4.25801 13.8582 4.34384 13.841C4.48117 13.8111 4.57144 13.7809 4.70018 13.7167C5.1681 13.4761 5.59725 13.0683 6.01367 12.4757C6.09091 12.3642 6.30548 12.025 6.33982 11.9649C6.35698 11.935 6.35254 11.935 6.31407 11.9693C6.23238 12.038 5.9234 12.3298 5.77749 12.4716C5.59725 12.6477 5.50283 12.7335 5.2924 12.9096C4.88042 13.2529 4.63566 13.3817 4.33526 13.4205C4.21954 13.4332 4.03071 13.429 3.97034 13.4119C3.95761 13.4074 3.91884 13.3604 3.88451 13.3089C3.77737 13.1541 3.54977 12.7548 3.55421 12.7335C3.55836 12.7164 3.5841 12.7119 3.74718 12.7033C3.85018 12.6992 3.99194 12.6862 4.06504 12.6734C4.40392 12.6175 4.8677 12.4846 5.08227 12.3813C5.32259 12.2656 5.54575 12.1111 5.7689 11.9093C5.96631 11.7287 6.09949 11.6172 6.18947 11.5571C6.23682 11.5272 6.2753 11.5014 6.27974 11.497C6.28388 11.4928 6.2753 11.4843 6.26671 11.4798C6.21522 11.4369 6.18947 11.3381 6.21966 11.3168C6.24096 11.3037 6.23238 11.278 6.19391 11.2608C6.13797 11.2309 6.08233 11.1794 6.048 11.1279C6.03083 11.1022 6.01367 11.0806 6.00508 11.0806C5.9965 11.0806 5.91067 11.0421 5.81182 10.9906C5.62299 10.8959 5.3954 10.7458 5.24091 10.6171C5.18941 10.5739 5.13791 10.5354 5.13377 10.5268C5.12518 10.5182 5.11216 10.5224 5.09085 10.5396C5.05208 10.5739 4.99644 10.5911 4.94909 10.5783C4.92778 10.5697 4.84165 10.5097 4.75582 10.4366C4.66999 10.3638 4.51136 10.2306 4.39978 10.1403C4.2882 10.0459 4.10796 9.89583 4.00052 9.80556C3.7087 9.5608 3.69568 9.54808 3.48969 9.47053C3.34378 9.41489 3.27098 9.37612 3.17212 9.32048L3.09044 9.26898L3.04338 9.34623C2.9833 9.44064 2.90161 9.54808 2.77287 9.70257C2.71723 9.77123 2.63998 9.86564 2.60979 9.91714C2.44672 10.1575 2.38664 10.1832 1.98324 10.1962L1.7299 10.2048L1.70859 10.2522C1.6784 10.325 1.58399 10.3723 1.54965 10.3294C1.54107 10.3208 1.53249 10.2865 1.52835 10.2522L1.51976 10.1877H1.38214V10.2649C1.38214 10.3552 1.36083 10.4108 1.30075 10.4582C1.2534 10.4966 1.23209 10.5011 1.2019 10.4753C1.18059 10.4582 1.18059 10.4582 1.15484 10.5052C1.11607 10.5825 1.03024 10.647 0.983181 10.6257C0.961576 10.6168 0.961576 10.5996 0.940267 10.3936C0.927244 10.2608 0.927244 10.2477 0.948849 10.1746C0.974598 10.0932 0.970159 10.0761 0.923101 10.0761C0.884329 10.0761 0.80294 10.0332 0.781334 9.99883C0.751442 9.95591 0.755586 9.90856 0.789917 9.87867C0.807083 9.86564 0.867164 9.84404 0.931684 9.83131C0.991764 9.81829 1.04741 9.80556 1.05599 9.80112C1.06457 9.79698 1.11607 9.7369 1.17201 9.6638C1.30075 9.49628 1.32206 9.4877 1.54551 9.47053C1.63548 9.46195 1.75564 9.45781 1.80714 9.45781C1.91014 9.45781 2.12057 9.43206 2.14632 9.41489C2.1549 9.41045 2.18923 9.3847 2.22356 9.35896C2.2792 9.31604 2.29223 9.29473 2.35231 9.17013C2.41239 9.03695 2.51124 8.77946 2.50266 8.77088C2.4553 8.73655 2.40824 8.69363 2.39966 8.67203C2.39108 8.64213 2.39108 8.64213 2.28779 8.64213C2.23215 8.64213 2.14188 8.63769 2.0818 8.62911C1.97022 8.61638 1.71273 8.55186 1.66123 8.52197C1.61417 8.49622 1.58843 8.45331 1.59701 8.41039C1.60559 8.37577 1.60115 8.37162 1.5754 8.37162C1.53693 8.37162 1.4508 8.32871 1.41647 8.28994C1.38214 8.25146 1.378 8.18694 1.40374 8.15705C1.42505 8.13544 1.51976 8.11413 1.59701 8.11413C1.65265 8.11413 1.66123 8.10111 1.63134 8.0798C1.62276 8.07122 1.61417 8.04547 1.61417 8.01528C1.61417 7.94662 1.64407 7.9336 1.86722 7.92501L2.0519 7.91643L2.0303 7.88654C2.00041 7.84777 2.00041 7.79627 2.0303 7.77052C2.04746 7.75336 2.08624 7.74921 2.19781 7.74063L2.34372 7.73205L2.29223 7.67611C2.26648 7.64622 2.15046 7.53878 2.03474 7.43579C1.76423 7.18659 1.68284 7.06228 1.64851 6.84741C1.61832 6.65445 1.69142 6.49966 1.86308 6.38808C1.91872 6.35375 1.92316 6.3496 1.91458 6.30225C1.91014 6.26377 1.91458 6.24217 1.93174 6.21228C1.95749 6.17351 2.23629 5.93318 2.30939 5.88583C2.331 5.8731 2.35231 5.8515 2.35231 5.83877C2.35231 5.79586 2.31354 5.69257 2.2792 5.63692L2.24073 5.57684L2.15904 5.58543C2.11198 5.58957 2.07321 5.59401 2.07321 5.59401C2.07321 5.59401 2.0818 5.61118 2.08624 5.63692C2.09896 5.66682 2.12057 5.68398 2.16763 5.70559C2.20196 5.72275 2.24073 5.73548 2.25345 5.73548C2.26648 5.73548 2.28779 5.73992 2.29637 5.7485C2.32656 5.76567 2.24073 5.76123 2.16763 5.73992C2.09482 5.71831 2.03888 5.67126 2.02172 5.61976C2.00899 5.58099 2.00455 5.57684 1.9273 5.56382C1.88439 5.55524 1.803 5.52949 1.74706 5.50818C1.69142 5.48658 1.64851 5.46941 1.64851 5.47385C1.64851 5.47799 1.69142 5.52535 1.74292 5.58543C1.79442 5.64107 1.8545 5.72275 1.87166 5.75709C1.91014 5.83877 1.91872 5.84291 1.97022 5.84291C1.99182 5.84291 2.02615 5.84735 2.03888 5.8515C2.09038 5.86452 2.06463 5.88169 1.98738 5.88169C1.91872 5.88169 1.91014 5.88169 1.90155 5.91158C1.89297 5.94591 1.87166 5.94177 1.87166 5.903C1.87166 5.88583 1.85864 5.87725 1.82875 5.86866C1.803 5.86008 1.77725 5.85594 1.77281 5.85594C1.76423 5.85594 1.72131 5.83877 1.67425 5.81302C1.61417 5.78283 1.57126 5.7485 1.51532 5.68842L1.44222 5.60674L1.48099 5.6754C1.5754 5.83877 1.61832 5.94591 1.61832 6.03174L1.62276 6.10899L1.67425 6.13473C1.70415 6.14776 1.73848 6.16492 1.75564 6.16492C1.77281 6.16492 1.78139 6.16936 1.77725 6.17794C1.76423 6.19511 1.70859 6.19067 1.64407 6.16936C1.59257 6.1522 1.58399 6.1522 1.53693 6.16936C1.49401 6.18653 1.47241 6.18653 1.42505 6.17794C1.39516 6.16936 1.36941 6.16936 1.36941 6.17351C1.36941 6.18653 1.42949 6.2765 1.48543 6.34102C1.51532 6.37535 1.53249 6.40524 1.52835 6.40524C1.5026 6.40524 1.39931 6.31083 1.34781 6.23803C1.31792 6.19925 1.29217 6.16078 1.28773 6.15634C1.28358 6.1519 1.28358 6.19511 1.28358 6.25075C1.28773 6.38393 1.27056 6.40968 1.24925 6.28952C1.22765 6.16078 1.17615 6.03618 1.08618 5.903C0.966015 5.71831 0.952993 5.70973 1.01307 5.84735C1.08618 6.01457 1.12051 6.13059 1.13767 6.23803C1.1504 6.328 1.14182 6.48249 1.12465 6.48249C1.12051 6.48249 1.11193 6.43958 1.10749 6.38808C1.0989 6.25933 1.05599 6.13059 0.94441 5.903L0.849998 5.70973V5.84291C0.849998 5.9246 0.841415 6.00599 0.828689 6.04476C0.789917 6.19067 0.785774 6.17794 0.892912 6.28952C0.94885 6.34516 0.987325 6.39252 0.987325 6.39666C0.978742 6.40524 0.845854 6.31083 0.807083 6.26792L0.772751 6.23359L0.747003 6.28952C0.71711 6.35375 0.644008 6.45674 0.639864 6.44816C0.635425 6.44402 0.65259 6.4011 0.678339 6.3496C0.742859 6.21642 0.742859 6.18209 0.695505 6.11342C0.674196 6.08324 0.639864 6.01901 0.618259 5.97166L0.579488 5.88583L0.570905 6.00185C0.566761 6.1004 0.558178 6.13059 0.52799 6.19511C0.493658 6.26792 0.420851 6.37091 0.412268 6.35819C0.407829 6.35375 0.420851 6.328 0.438017 6.30225C0.455183 6.27236 0.476492 6.21642 0.485075 6.17794C0.515264 6.05749 0.506681 5.8515 0.472349 5.8515C0.463766 5.8515 0.442161 5.84291 0.420851 5.83433L0.38652 5.81717L0.347749 5.903C0.304834 5.99741 0.201839 6.11757 0.163364 6.11757C0.146198 6.11757 0.150341 6.10899 0.184673 6.07051C0.232027 6.01901 0.274942 5.93318 0.304834 5.83433L0.326439 5.76567L0.283525 5.69257C0.214861 5.57684 0.197695 5.50818 0.197695 5.32764C0.197695 5.24181 0.193256 5.17759 0.189112 5.18173C0.184673 5.18617 0.158924 5.2205 0.133175 5.26342C0.0730949 5.35783 0.0387631 5.47385 0.0387631 5.57684C0.0387631 5.65409 0.0387631 5.65409 0.0215972 5.62834C0.000287899 5.58543 0.000287899 5.45224 0.0215972 5.37056C0.047346 5.27615 0.111866 5.15598 0.180529 5.07459C0.223444 5.0228 0.244753 4.97989 0.261919 4.91981C0.296251 4.81267 0.356331 4.70967 0.476492 4.56791L0.575344 4.45189L0.579488 4.30183C0.583927 4.11715 0.596653 4.0698 0.729837 3.83806L0.824249 3.67055V3.56341C0.824249 3.26271 0.888769 2.97947 1.01307 2.70452C1.04741 2.63586 1.06901 2.58022 1.06901 2.58022C1.06457 2.58022 1.03468 2.61869 1.00449 2.67019C0.923101 2.79035 0.845854 2.94928 0.794357 3.10822C0.755586 3.23282 0.751442 3.24998 0.747003 3.4172C0.747003 3.51605 0.73842 3.59774 0.734276 3.59774C0.695505 3.59774 0.674196 3.33581 0.695505 3.18546C0.721254 3.00078 0.807083 2.78177 0.905935 2.63586C0.927244 2.60153 0.948849 2.5672 0.948849 2.56305C0.948849 2.55861 0.927244 2.57163 0.901495 2.58436C0.837271 2.61869 0.751442 2.70038 0.71711 2.7646C0.699944 2.79479 0.682779 2.8164 0.678339 2.8164C0.674196 2.8164 0.678339 2.79479 0.682779 2.76904C0.704088 2.6403 0.820106 2.52428 1.00035 2.44703C1.04326 2.42987 1.09476 2.3911 1.1504 2.33102L1.23623 2.24519L1.18473 2.25377C1.03468 2.27538 1.0261 2.27952 1.00035 2.35262C0.970159 2.42987 0.948849 2.43845 0.952993 2.36979C0.957432 2.34404 0.957432 2.31829 0.952993 2.31829C0.948849 2.31829 0.927244 2.33102 0.901495 2.34404C0.828688 2.38251 0.824249 2.36535 0.897352 2.31385C0.94441 2.27952 0.974598 2.24519 0.995908 2.19813C1.01307 2.1638 1.05599 2.09928 1.08618 2.06495C1.13767 2.00487 1.14182 1.99628 1.12051 1.98326C1.10749 1.97468 1.09476 1.97053 1.08618 1.97053C1.06043 1.97053 0.927244 2.0392 0.871603 2.08655C0.841415 2.1123 0.811523 2.12947 0.807083 2.12503C0.789917 2.10786 0.88433 2.02203 0.987325 1.95751C1.01307 1.94035 1.03882 1.92762 1.03882 1.92318C1.04326 1.91904 1.03024 1.90187 1.01307 1.88027C0.987325 1.84593 0.974598 1.82018 0.987325 1.82018C0.991764 1.82018 1.01307 1.83735 1.04326 1.8631L1.09476 1.90187L1.17615 1.88027C1.21906 1.86754 1.26642 1.85896 1.27914 1.85896C1.29217 1.85896 1.34366 1.83735 1.39072 1.81604C1.43808 1.79444 1.51118 1.76454 1.54965 1.75152C1.64851 1.72577 1.87166 1.72163 1.97022 1.75152C2.00899 1.76454 2.04332 1.76869 2.04332 1.76454C2.0519 1.75596 1.86308 1.6355 1.80714 1.61834C1.72575 1.58845 1.60115 1.58845 1.5026 1.61834C1.41233 1.64409 1.39931 1.6355 1.46383 1.60117C1.59701 1.53251 1.76867 1.51978 1.89297 1.5627C1.93174 1.57542 2.00041 1.61419 2.04332 1.64409C2.08624 1.67427 2.12471 1.70002 2.12915 1.69588C2.13329 1.69588 2.15904 1.64853 2.19781 1.59703C2.30081 1.44668 2.42955 1.3351 2.55415 1.29219C2.56688 1.28775 2.58405 1.23625 2.60565 1.14184C2.64413 0.983201 2.66573 0.974618 2.64857 1.12467C2.6314 1.27916 2.62696 1.27058 2.70006 1.27058C2.83295 1.27502 2.87586 1.30935 2.74712 1.3135C2.63554 1.31794 2.62282 1.32652 2.60565 1.41235C2.59707 1.45112 2.59263 1.48545 2.59707 1.48959C2.60565 1.49818 2.74298 1.43395 2.81578 1.38246C2.92322 1.30935 2.9833 1.18061 2.96613 1.05186C2.95311 0.948869 2.98744 0.987345 3.00905 1.10336C3.01763 1.15042 2.99603 1.27058 2.96169 1.33096C2.91464 1.41235 2.82881 1.47687 2.67431 1.55411C2.56688 1.60561 2.52396 1.63136 2.51124 1.66125C2.48105 1.71719 2.48549 1.71719 2.54557 1.67427C2.57546 1.65267 2.65715 1.60975 2.72581 1.57542C2.85456 1.51534 2.89303 1.48545 3.06469 1.33096C3.18071 1.22352 3.20646 1.15042 3.16354 1.03026C3.15496 1.00037 3.14638 0.970179 3.14638 0.966035C3.14638 0.935847 3.22806 1.04743 3.24079 1.09892L3.25381 1.15042L3.33964 1.0862C3.44678 1.00451 3.56694 0.961596 3.6871 0.961596C3.73445 0.961596 3.78595 0.970179 3.80312 0.978762C3.85876 1.00895 3.91026 1.06903 3.92742 1.12911C3.94459 1.18475 3.94903 1.18475 4.00052 1.19333C4.14643 1.21494 4.24529 1.30935 4.2882 1.47687C4.30093 1.51978 4.30537 1.52837 4.34828 1.53251C4.42109 1.54553 4.53711 1.60975 4.60577 1.67427L4.66999 1.73436L4.78157 1.70446C4.87628 1.67842 4.92334 1.66984 5.05652 1.66984C5.16366 1.66984 5.23676 1.67427 5.27524 1.687L5.33532 1.70446L5.42115 1.60975C5.4685 1.55826 5.52 1.49403 5.53716 1.46385C5.55433 1.42951 5.56706 1.41679 5.56706 1.42951C5.5715 1.45526 5.49425 1.61834 5.44275 1.68286L5.39984 1.73436L5.48123 1.8116C5.52414 1.85037 5.55847 1.88885 5.55433 1.89329C5.54989 1.89743 5.51556 1.88027 5.48123 1.85452C5.38682 1.79444 5.34834 1.79029 5.29684 1.82462C5.12518 1.95337 4.88901 2.02617 4.58416 2.05192L4.48117 2.06051L4.54983 2.07797C4.63152 2.09513 4.64868 2.09513 4.87184 2.04778C5.00502 2.02203 5.07369 2.01345 5.20243 2.01345C5.30543 2.01345 5.36965 2.01759 5.37823 2.02617C5.38682 2.03476 5.36107 2.04334 5.28826 2.04778C5.095 2.06495 5.095 2.06051 5.095 2.12503V2.18096L5.13791 2.17238C5.15952 2.16794 5.19799 2.15936 5.22374 2.15521C5.24535 2.15078 5.27524 2.14663 5.28826 2.14663C5.31815 2.14663 5.24535 2.18955 5.14649 2.22388C5.07783 2.24963 5.07369 2.25821 5.03077 2.33102L4.98786 2.4127L5.09085 2.3612C5.30543 2.24963 5.48123 2.21086 5.58422 2.24519C5.65733 2.27094 5.64874 2.2881 5.55847 2.29669C5.51556 2.30112 5.44275 2.31385 5.39984 2.33102C5.31401 2.36121 5.10358 2.48581 5.095 2.51155C5.09085 2.52014 5.08227 2.52872 5.07369 2.52872C5.0651 2.52872 5.02219 2.55003 4.98342 2.57578L4.91061 2.62728L4.96625 2.61869C4.99644 2.61455 5.095 2.59738 5.18083 2.57578C5.27109 2.55861 5.37409 2.5373 5.42115 2.53286C5.47708 2.52428 5.53273 2.50711 5.63158 2.46006C5.78607 2.38251 5.84201 2.36979 5.97489 2.36979C6.08647 2.36979 6.1723 2.3911 6.30105 2.44703C6.38687 2.48581 6.4727 2.54145 6.41706 2.52428C6.2238 2.47278 6.1723 2.4642 6.03497 2.4642C5.91481 2.4642 5.88048 2.46864 5.82484 2.48995C5.78607 2.50711 5.75618 2.52014 5.76032 2.52428C5.76476 2.52872 5.80767 2.5373 5.85473 2.55003C5.90209 2.55861 5.98348 2.58436 6.03083 2.60597C6.1723 2.66161 6.35698 2.78621 6.33982 2.80781C6.33538 2.81196 6.28832 2.79893 6.23238 2.78177C5.98792 2.70452 5.79051 2.67019 5.60583 2.68321L5.49425 2.6918L5.40398 2.7646C5.35692 2.80337 5.2924 2.85073 5.26665 2.86789L5.21516 2.90223H5.70882C6.04356 2.90223 6.22824 2.89779 6.2753 2.8892C6.35698 2.87204 6.45998 2.83771 6.51562 2.80781C6.53722 2.79479 6.55439 2.79035 6.55883 2.79479C6.57156 2.80781 6.5242 2.85073 6.45139 2.90223C6.30548 3.00078 6.15514 3.02653 5.71741 3.02239C5.2924 3.02239 5.08227 3.05672 4.87628 3.15527C4.72593 3.23282 4.71735 3.2414 4.84165 3.21565C4.89759 3.20263 5.03935 3.18546 5.15093 3.18132C5.32259 3.1683 5.36965 3.1683 5.45134 3.18546C5.53273 3.19848 5.55433 3.19848 5.60139 3.18546C5.76476 3.13396 6.17674 3.09963 6.22824 3.13396C6.24955 3.14669 6.23682 3.14669 6.06072 3.1683C5.96631 3.18132 5.7689 3.23282 5.73043 3.25413C5.72185 3.26271 5.76032 3.28846 5.84615 3.33137C5.96631 3.39145 6.02225 3.43022 5.99206 3.43022C5.98348 3.43022 5.93198 3.41306 5.87634 3.39589C5.81626 3.37429 5.73043 3.34854 5.68307 3.33581L5.59725 3.31006L5.42559 3.40004C5.23232 3.50747 4.97483 3.61047 4.77743 3.67055C4.6916 3.69629 4.64424 3.71346 4.65727 3.72204C4.69574 3.73507 4.74724 3.73063 4.82034 3.69215C4.90617 3.65338 5.03492 3.61905 5.1166 3.61905C5.14649 3.61905 5.2196 3.62763 5.27968 3.63621C5.33976 3.64924 5.3954 3.65338 5.40398 3.64924C5.41256 3.6448 5.42115 3.64924 5.42559 3.65782C5.42973 3.6664 5.4685 3.67913 5.51142 3.68771C5.58008 3.70073 5.69166 3.69215 5.79909 3.6664L5.82898 3.65782L5.79909 3.68357C5.75618 3.72204 5.62714 3.76081 5.54989 3.75638C5.51142 3.75638 5.44275 3.74779 5.3954 3.73921L5.30957 3.72204L5.20657 3.77354C5.15093 3.80373 5.09944 3.82948 5.095 3.83806C5.08227 3.85523 5.13791 3.86795 5.32259 3.87239C5.417 3.87654 5.48981 3.88512 5.48981 3.88956C5.48981 3.92389 5.21101 3.93691 5.08641 3.90672L5.00058 3.88956L4.91475 3.9455C4.8677 3.97539 4.79459 4.03132 4.75168 4.06566C4.65283 4.1429 4.50692 4.22873 4.37817 4.27579C4.31395 4.2974 4.29678 4.31042 4.33112 4.30183C4.41251 4.28881 4.5155 4.2459 4.70018 4.15563C4.90203 4.05263 4.96625 4.03132 5.11216 4.01416C5.29684 3.99255 5.42559 4.02689 5.58008 4.14705C5.66591 4.21157 5.66147 4.22873 5.5715 4.18996C5.39125 4.10857 5.21516 4.09141 5.03492 4.13846C4.9405 4.16421 4.92778 4.1728 4.65283 4.31456C4.43411 4.43058 4.33112 4.46047 4.12927 4.46905L3.97892 4.47349L3.96619 4.57649C3.94044 4.76117 3.91026 4.85558 3.83745 4.98847L3.76879 5.11307L3.79868 5.16901C3.8117 5.1989 3.83301 5.22465 3.83745 5.22465C3.84603 5.22465 3.85461 5.1989 3.8632 5.16901C3.87178 5.13882 3.89309 5.10034 3.91026 5.08318C3.96175 5.03582 4.3397 4.88991 4.40836 4.88991C4.42109 4.88991 4.45128 4.90264 4.46844 4.91981L4.50277 4.94999L4.58416 4.91566C4.76441 4.83842 4.81176 4.82539 4.96625 4.82539C5.095 4.82539 5.12074 4.82983 5.22818 4.86831C5.48567 4.95414 5.65733 5.08318 5.86776 5.33623C5.93642 5.41791 6.04356 5.52949 6.09949 5.58543C6.44281 5.89885 6.65324 6.16936 6.73907 6.41827C6.78613 6.54701 6.83763 6.81752 6.8249 6.88174C6.81188 6.98504 6.66182 7.16528 6.51148 7.26827L6.45139 7.30704L6.48987 7.34138C6.51148 7.35854 6.56741 7.4056 6.61033 7.44437C6.65738 7.48285 6.76038 7.57311 6.84207 7.63763C7.01787 7.7791 7.03947 7.80929 7.03089 7.89512C7.02645 7.9552 7.02645 7.9552 7.0738 7.9851C7.09955 8.00226 7.14247 8.03245 7.16822 8.04961L7.21113 8.08395L7.27121 8.04547C7.31413 8.01528 7.34846 8.0067 7.4044 8.00226C7.48164 7.99368 7.48164 7.99368 7.81194 8.09253C7.89777 8.11828 7.94512 8.15261 7.96643 8.20411C7.97501 8.22986 7.98803 8.25146 7.98803 8.25146C7.98803 8.25146 8.04811 8.22571 8.12092 8.19138C8.18959 8.15705 8.27985 8.11828 8.31419 8.10555C8.39143 8.07536 8.52018 8.07536 8.64892 8.10111C8.73475 8.11828 8.73919 8.11828 8.75635 8.09253C8.84633 7.96379 9.16833 7.58584 9.31425 7.44437C9.46874 7.29402 9.69633 7.13095 9.8378 7.06643C9.90232 7.03653 10.1512 6.97645 10.4389 6.91637L10.6233 6.8776L10.7005 6.77875C10.8509 6.58993 10.9412 6.53428 11.9412 6.00599C12.495 5.71417 13.0872 5.375 13.2417 5.25898C13.3447 5.18173 13.4521 5.07459 13.5936 4.89406C13.7268 4.72684 13.8984 4.56347 13.9884 4.51197C14.0272 4.49066 14.1432 4.44331 14.2462 4.40483C14.4649 4.32314 14.6582 4.22429 14.7739 4.13846L14.8556 4.07838L14.847 3.99255C14.8425 3.9455 14.8298 3.85079 14.8126 3.78212C14.7955 3.69629 14.791 3.62763 14.791 3.55482C14.7955 3.46012 14.7996 3.44295 14.847 3.34854C14.8813 3.27987 14.9071 3.20263 14.9284 3.11236C14.9757 2.90223 15.0272 2.85073 15.169 2.85073C15.2761 2.85073 15.3664 2.88062 15.5295 2.97503C15.7482 3.09963 16.2161 3.43437 16.6023 3.73921L16.7355 3.8422L17.0359 3.69215C17.199 3.61047 17.4523 3.4903 17.5941 3.43022C17.9203 3.2929 17.9759 3.26271 18.1046 3.1683C18.2636 3.04814 18.3065 3.03955 18.83 3.00522C18.933 2.99664 19.0748 2.98362 19.1521 2.97503C19.2252 2.96231 19.3453 2.95372 19.4181 2.95372C19.5427 2.94928 19.5513 2.95372 19.6028 2.98362C19.6327 3.00078 19.723 3.08661 19.8088 3.1683C19.9503 3.31006 19.9633 3.32279 19.9805 3.39145C19.9932 3.44739 19.9976 3.48586 19.9932 3.54624C19.9805 3.6664 19.9547 3.72204 19.8902 3.75223C19.8603 3.76496 19.8301 3.77798 19.8215 3.77798C19.8129 3.77798 19.8088 3.79071 19.8088 3.80373C19.8088 3.88956 19.7099 3.99255 19.6114 4.01416C19.5771 4.02274 19.5726 4.02689 19.5726 4.05263C19.5726 4.09555 19.5341 4.1728 19.4954 4.20298C19.4782 4.21571 19.4397 4.23731 19.4054 4.25004C19.3539 4.26721 19.3495 4.27579 19.3409 4.319C19.3323 4.37464 19.2636 4.45633 19.208 4.46905C19.1864 4.47349 19.139 4.50339 19.1006 4.53772C19.0103 4.61082 18.933 4.63657 18.8431 4.63213C18.6841 4.6194 18.6199 4.50783 18.7013 4.39625L18.7401 4.34475L18.6069 4.27165C18.4311 4.17723 18.3408 4.13846 18.2807 4.13846C18.2076 4.13846 18.0404 4.22873 17.7613 4.422C17.6284 4.51197 17.5169 4.58922 17.5124 4.59365C17.5083 4.5978 17.5124 4.60224 17.521 4.60638C17.5811 4.62799 17.5983 4.70523 17.5553 4.77834C17.5124 4.85558 17.2934 5.06601 17.1348 5.18173C17.0489 5.24625 16.9374 5.33208 16.8814 5.375C16.7571 5.47385 16.684 5.51676 16.5594 5.56382C16.4478 5.60674 16.4351 5.61976 16.375 5.73134C16.3277 5.82575 16.2806 5.85594 16.1474 5.87725C16.1004 5.88583 16.0444 5.903 16.0273 5.92016C16.006 5.93318 15.9545 5.99741 15.9157 6.06193C15.8257 6.20369 15.7654 6.26792 15.6496 6.34516C15.5037 6.44402 15.3705 6.5041 15.272 6.51268L15.1862 6.51682L15.1261 6.59436C15.0488 6.69292 14.8082 6.93354 14.7138 7.00635C14.5164 7.16084 14.229 7.33279 14.0485 7.4056C13.9369 7.45295 13.8854 7.48285 13.701 7.64178C13.6193 7.71044 13.4734 7.8306 13.3663 7.90371C13.1473 8.06678 12.8853 8.29438 12.7868 8.40595C12.748 8.44887 12.5465 8.74957 12.336 9.06714C11.8897 9.75407 11.7696 9.92158 11.3703 10.4152C11.1255 10.7157 11.0184 10.8358 10.7781 11.0806C10.6147 11.2436 10.443 11.4156 10.3916 11.4585L10.3016 11.5399V11.6473C10.3016 11.922 10.2587 12.1668 10.1557 12.4888C9.92807 13.21 9.74339 13.5705 9.03959 14.6567C8.33993 15.7343 8.17686 16.0563 7.97501 16.7003C7.92351 16.8678 7.87202 16.9966 7.83354 17.0738L7.77346 17.1898L7.78619 17.3574C7.80335 17.6018 7.79063 17.6492 7.6533 17.7824L7.5802 17.8552L7.61039 17.9111C7.6533 17.9969 7.67905 18.1085 7.66603 18.1858C7.66188 18.2201 7.64472 18.2973 7.62311 18.3533L7.58464 18.4563L7.62755 18.5678C7.7048 18.7783 7.82052 19.2977 7.85485 19.5682C7.89777 19.9074 7.88918 20.4611 7.83354 20.9548C7.81194 21.1481 7.78619 21.7663 7.78619 22.0626C7.78619 22.1913 7.65744 22.2902 7.32271 22.4103C7.25405 22.4361 7.18538 22.4618 7.17236 22.466L7.14661 22.479L7.16822 22.6122C7.18094 22.685 7.20255 22.8525 7.21971 22.9812C7.27121 23.3719 7.32685 23.5738 7.44731 23.7499C7.60595 23.9943 7.64472 24.2219 7.55445 24.385C7.53728 24.4152 7.49022 24.4753 7.45145 24.5182C7.30554 24.6727 7.13389 24.7629 6.95779 24.776C6.84621 24.7845 6.79915 24.8103 6.42979 25.0633C6.16372 25.2439 6.06931 25.2995 5.85917 25.3854C5.6961 25.454 5.60139 25.467 5.45134 25.4327C5.35248 25.4111 5.34834 25.4111 5.27109 25.4369C5.19799 25.4454 5.15093 25.4585 5.13791 25.4626ZM1.35225 6.12615C1.38658 6.13917 1.47655 6.13917 1.49816 6.12615C1.50674 6.11757 1.49816 6.10484 1.45939 6.07051C1.39931 6.01901 1.33064 5.91602 1.29217 5.81717L1.26198 5.7485L1.27056 5.8515C1.275 5.98882 1.31348 6.10899 1.35225 6.12615ZM0.674196 5.98024C0.686922 6.01901 0.708527 6.05749 0.71711 6.07051C0.734276 6.09182 0.734276 6.08768 0.729837 6.01457C0.725693 5.97166 0.712671 5.903 0.699945 5.86452C0.665613 5.7485 0.575344 5.53393 0.570905 5.55968C0.566761 5.58543 0.644008 5.89027 0.674196 5.98024ZM1.42505 5.88583C1.46383 5.97166 1.54551 6.08324 1.54965 6.05334C1.54965 6.01043 1.44222 5.78727 1.36941 5.697L1.34781 5.66682L1.36497 5.73548C1.37356 5.76981 1.39931 5.83877 1.42505 5.88583ZM1.67425 5.74406C1.72575 5.78283 1.83733 5.83877 1.83733 5.82575C1.83733 5.82161 1.76867 5.7485 1.68698 5.65823C1.60115 5.56826 1.52391 5.47799 1.50674 5.45224C1.49401 5.42649 1.47655 5.40519 1.47241 5.40519C1.45939 5.40519 1.48099 5.46941 1.51532 5.54251C1.55409 5.62834 1.60559 5.697 1.67425 5.74406ZM0.429434 5.8C0.467909 5.82575 0.476492 5.82161 0.46791 5.78727C0.463766 5.77011 0.455183 5.73548 0.450744 5.70973C0.442161 5.66682 0.442161 5.66682 0.429434 5.697C0.403686 5.76981 0.399246 5.77869 0.429434 5.8ZM0.317856 5.63692C0.326439 5.66267 0.339166 5.68398 0.343605 5.68398C0.352188 5.68398 0.373497 5.56382 0.390663 5.41377C0.403686 5.27615 0.429434 5.13468 0.459327 5.01007C0.472349 4.95858 0.480932 4.91566 0.476492 4.91566C0.476492 4.91566 0.438017 4.94141 0.395103 4.97989C0.322 5.04441 0.317856 5.05299 0.296251 5.13468C0.257776 5.31492 0.266359 5.50818 0.317856 5.63692ZM2.0303 5.43952C2.0519 5.4996 2.0519 5.4996 2.09896 5.4996C2.12915 5.4996 2.15046 5.49516 2.15046 5.48658C2.15046 5.46941 1.99182 5.3235 1.93589 5.29331L1.88439 5.26342L1.94447 5.31906C1.99182 5.36197 2.01757 5.40075 2.0303 5.43952ZM1.8545 5.4481C1.97022 5.48658 1.99182 5.48243 1.93174 5.42235C1.89297 5.38772 1.85864 5.36641 1.72131 5.30633C1.66567 5.28473 1.60559 5.2504 1.57984 5.23323C1.51976 5.19032 1.51976 5.2205 1.57984 5.28917C1.6269 5.34925 1.73434 5.40933 1.8545 5.4481ZM1.65709 5.15598C1.6784 5.17315 1.81158 5.23323 1.81158 5.22465C1.81158 5.2205 1.78583 5.20334 1.7515 5.18617C1.71717 5.16901 1.66567 5.13024 1.63548 5.10034C1.60559 5.07016 1.5754 5.04885 1.57126 5.05743C1.56268 5.07016 1.60559 5.11751 1.65709 5.15598ZM0.420851 4.81267C0.390663 4.85973 0.412268 4.84256 0.493658 4.75259C0.579488 4.65817 0.626842 4.60224 0.613819 4.58922C0.609676 4.58063 0.459327 4.75673 0.420851 4.81267ZM0.678339 4.21157C0.669756 4.2459 0.665613 4.29325 0.669756 4.319L0.674196 4.35748L0.712671 4.30598C0.772752 4.22429 0.837271 4.04849 0.837271 3.96266C0.837271 3.90228 0.832832 3.8937 0.820106 3.91116C0.781334 3.9455 0.691362 4.14705 0.678339 4.21157ZM4.54983 4.00558C4.64424 3.97983 4.87184 3.87654 4.87184 3.85937C4.87184 3.85523 4.85053 3.84664 4.82893 3.8422C4.79015 3.83362 4.77299 3.8422 4.66585 3.91531C4.60133 3.96266 4.54983 4.00114 4.54983 4.00558ZM4.89759 3.78656C4.91475 3.81231 4.96625 3.80373 5.05208 3.76081C5.12074 3.72648 5.13791 3.71346 5.1166 3.71346C5.07369 3.71346 4.89345 3.77354 4.89759 3.78656ZM4.68716 3.52464C4.65727 3.55038 4.65727 3.55038 4.77299 3.51161C4.91061 3.4687 5.17668 3.37014 5.26665 3.32279L5.3439 3.28431L5.27968 3.2929C5.18941 3.30148 5.09085 3.32723 4.98786 3.37014C4.88042 3.41306 4.72149 3.49445 4.68716 3.52464ZM4.62708 2.91081C4.74724 2.92797 4.8159 2.92353 4.91919 2.88506C5.01775 2.85073 5.15952 2.78621 5.15508 2.77763C5.15093 2.77763 5.1166 2.78177 5.07369 2.79035C5.03077 2.79923 4.94909 2.81196 4.89345 2.82054C4.83751 2.82912 4.7431 2.85073 4.67858 2.86789L4.56285 2.90223L4.62708 2.91081ZM4.77299 2.40826H4.8159C4.85053 2.40826 4.86326 2.39968 4.90203 2.35677C4.92334 2.32687 4.9405 2.30112 4.9405 2.30112C4.93636 2.29669 4.90203 2.32243 4.85467 2.35262L4.77299 2.40826ZM4.43411 2.32687C4.49833 2.34404 4.70876 2.34818 4.76884 2.33546C4.79459 2.32687 4.78601 2.32687 4.72593 2.32243C4.68302 2.32243 4.5886 2.31829 4.51136 2.31385C4.38261 2.30971 4.37817 2.30971 4.43411 2.32687ZM1.09476 2.18096C1.07315 2.21086 1.06457 2.2366 1.07315 2.23246C1.12465 2.22802 1.38658 2.12947 1.39931 2.10786C1.40374 2.10372 1.39516 2.09513 1.378 2.09513C1.36497 2.09513 1.31792 2.08655 1.275 2.07353L1.19775 2.05222L1.16342 2.08655C1.14626 2.1123 1.11607 2.15078 1.09476 2.18096ZM4.76884 2.18955C4.79459 2.19369 4.85911 2.20227 4.91475 2.20671L5.01361 2.2153L5.03492 2.1638C5.04794 2.13361 5.05652 2.10786 5.05208 2.10786C5.04794 2.10372 4.97483 2.12088 4.88486 2.14219C4.73007 2.17652 4.72593 2.18096 4.76884 2.18955ZM1.30933 1.99184C1.33064 2.00487 1.52835 2.00487 1.61832 1.99184C1.65709 1.9877 1.70415 1.97468 1.7299 1.96195C1.77725 1.94479 1.76867 1.94479 1.57126 1.94479C1.40374 1.94479 1.36083 1.94893 1.33064 1.96195C1.30075 1.97468 1.29631 1.98326 1.30933 1.99184ZM4.75168 1.92318C4.73007 1.94479 4.93192 1.9146 5.03077 1.8847C5.095 1.8631 5.19385 1.80746 5.18526 1.79888C5.17224 1.78585 5.01361 1.82462 4.88486 1.87168C4.82034 1.89743 4.75582 1.91904 4.75168 1.92318ZM1.56268 1.85896C1.53249 1.87168 1.78139 1.87168 1.84147 1.85896C1.88025 1.85037 1.88025 1.85037 1.80714 1.84179C1.73848 1.82877 1.60974 1.83735 1.56268 1.85896ZM4.31809 1.77313C4.39978 1.78585 4.50277 1.78171 4.52408 1.76869C4.53711 1.7601 4.52852 1.75152 4.47703 1.72577C4.41694 1.69588 4.2882 1.66125 4.27962 1.66984C4.27518 1.66984 4.27103 1.69144 4.2666 1.71719L4.25801 1.7601L4.31809 1.77313ZM3.98336 1.72163C4.22812 1.76869 4.22812 1.76869 4.22812 1.70861V1.66125L4.15502 1.65267C4.00052 1.6355 3.68296 1.64853 3.71729 1.66984C3.72587 1.67871 3.74718 1.68286 3.76435 1.68286C3.78151 1.6873 3.88036 1.70446 3.98336 1.72163ZM2.27506 1.65711C2.25789 1.69144 2.26204 1.69144 2.29223 1.66569C2.30495 1.65267 2.34816 1.63136 2.38249 1.60975C2.43814 1.57986 2.45116 1.56684 2.48105 1.5112C2.49822 1.47687 2.51538 1.43395 2.51982 1.41679L2.5284 1.3866L2.49407 1.4082C2.42541 1.45526 2.31797 1.57542 2.27506 1.65711ZM3.17656 1.46828C3.14638 1.52836 3.12477 1.58401 3.12477 1.58401C3.12477 1.58401 3.15052 1.5627 3.18071 1.53251C3.25795 1.45112 3.40386 1.33954 3.50271 1.28775C3.59269 1.24069 3.72143 1.2105 3.80726 1.2105C3.83745 1.2105 3.85876 1.20636 3.85876 1.19777C3.85876 1.17617 3.80312 1.10336 3.77293 1.09034C3.75576 1.08176 3.71729 1.07761 3.66993 1.07761C3.56694 1.08176 3.46394 1.13769 3.3352 1.25785C3.23664 1.34812 3.22362 1.36529 3.17656 1.46828ZM3.40386 1.57128C3.40386 1.57542 3.40386 1.57542 3.4083 1.57542C3.43405 1.5627 3.64419 1.52393 3.77737 1.50676L3.83301 1.49818L3.85876 1.41235C3.87592 1.36529 3.88451 1.32237 3.88036 1.32237C3.86734 1.30935 3.74718 1.34368 3.66993 1.37802C3.60571 1.41235 3.40386 1.55411 3.40386 1.57128ZM3.99609 1.50676C4.06919 1.5112 4.14643 1.51978 4.17662 1.52393L4.22368 1.53251L4.19793 1.48545C4.15946 1.4082 4.09079 1.35227 4.01769 1.3351C3.936 1.31794 3.93186 1.31794 3.93186 1.34368C3.93186 1.35671 3.9147 1.39518 3.89753 1.43395L3.8632 1.49818L3.99609 1.50676Z" fill="#DCDCDC"/>
</g>
</svg>
