<svg width="20" height="22" viewBox="0 0 20 22" fill="none" xmlns="http://www.w3.org/2000/svg">
<path d="M19.89 2.73697C19.86 2.71461 19.7904 2.71233 19.7528 2.69708C19.7142 2.68158 19.6674 2.66101 19.6247 2.6793C19.5648 2.7047 19.5229 2.80506 19.4807 2.8729C19.471 2.8607 19.4591 2.84978 19.4472 2.84012L19.4456 2.83936C19.4916 2.75196 19.5272 2.62874 19.5282 2.54591C19.576 2.53778 19.6303 2.50501 19.6723 2.47274C19.7485 2.49383 19.8689 2.5045 19.908 2.44251C19.9594 2.36146 19.7894 2.32437 19.7363 2.31446C19.5501 2.27838 19.4538 2.42447 19.3028 2.46258C19.374 2.30404 19.4733 2.18844 19.5803 2.04617C19.6283 1.98113 19.6481 1.85028 19.5254 1.89678C19.4538 1.92371 19.3986 1.99053 19.3341 2.03194C19.3323 1.95801 19.3059 1.88001 19.2248 1.9265C19.1717 1.95699 19.1001 2.04236 19.0625 2.08936C19.0135 2.15084 18.9914 2.2263 18.9461 2.29312C18.9228 2.32742 18.893 2.35816 18.8831 2.39906C18.8732 2.44302 18.8857 2.49713 18.8831 2.5421C18.8737 2.72376 18.8222 2.90415 18.7597 3.07132C18.7287 3.15415 18.6631 3.21563 18.6275 3.29464C18.6037 3.348 18.5734 3.45445 18.5701 3.52127C18.3885 3.56319 18.2119 3.63179 18.0417 3.67803C17.9421 3.70521 17.8049 3.72122 17.7294 3.80252C17.6903 3.84469 17.6908 3.89119 17.6796 3.93743C17.547 3.9857 17.3844 3.97173 17.248 3.99129C17.0752 4.01593 16.9449 4.10435 16.7858 4.17218C16.6329 4.23773 16.4736 4.26263 16.3171 4.301C16.1804 4.33402 16.0851 4.37823 15.9746 4.44099C15.7927 4.40745 15.5447 4.52178 15.3867 4.53905C15.2757 4.55125 14.9764 4.5825 14.9154 4.71614C14.7066 4.59139 14.4019 4.64602 14.1616 4.64602C13.9492 4.64602 13.5783 4.55836 13.3659 4.6389C13.3176 4.59774 13.2691 4.55633 13.2063 4.52991C13.1273 4.49739 13.0325 4.46258 12.9494 4.4547C12.748 4.43616 12.5617 4.45852 12.3732 4.40796C12.065 4.32488 11.6977 4.27406 11.3859 4.3828C11.2861 4.28372 11.125 4.14475 11.0988 4.01975C11.2068 4.03245 11.3244 4.02737 11.3796 3.989C11.4759 3.92269 11.502 3.77584 11.5709 3.68667C11.6796 3.54591 11.7909 3.40465 11.8913 3.2573C11.939 3.18667 11.9728 3.10181 12.0041 3.02356C12.0391 2.9359 12.0368 2.83707 12.0798 2.75653C12.1164 2.68717 12.1837 2.63484 12.2337 2.57335C12.3023 2.49104 12.2927 2.42193 12.2876 2.32132C12.2785 2.13662 12.2917 1.9514 12.2879 1.76949C12.3102 1.80735 12.2973 1.96893 12.3244 1.99586C12.3138 1.98214 12.3272 1.93362 12.3389 1.8795C12.3605 1.97859 12.4715 1.94276 12.4591 1.94581C12.4649 1.94378 12.3651 1.95369 12.3732 1.86985C12.3742 1.83707 12.3717 1.79922 12.3666 1.7667C12.3773 1.78016 12.388 1.79566 12.3974 1.81344C12.4144 1.84139 12.4378 1.88458 12.4731 1.88001C12.4761 1.8795 12.4782 1.87849 12.4812 1.87798C12.4571 1.86324 12.4334 1.79922 12.4075 1.74307C12.4177 1.74713 12.4284 1.75145 12.4393 1.75526C12.4667 1.82843 12.5612 1.81268 12.5511 1.80913C12.5531 1.81014 12.4903 1.81167 12.4713 1.76543C12.4736 1.76568 12.4751 1.76644 12.4774 1.7672C12.5765 1.7733 12.6286 1.70115 12.6306 1.7075C12.6319 1.70267 12.5567 1.75628 12.486 1.73341C12.4794 1.73037 12.4731 1.72681 12.4667 1.723C12.467 1.71995 12.4675 1.71741 12.4677 1.71461C12.4685 1.70953 12.4685 1.70369 12.4688 1.69835C12.5589 1.68717 12.671 1.65592 12.6611 1.63611C12.6634 1.65186 12.6016 1.65618 12.5358 1.65338C12.5765 1.64754 12.6214 1.62849 12.6608 1.58453C12.716 1.53829 12.7205 1.43717 12.6664 1.39068C12.6339 1.36273 12.6029 1.35028 12.581 1.34393C12.5993 1.30862 12.6037 1.26289 12.5696 1.20547C12.5249 1.16939 12.4769 1.15465 12.4314 1.14983C12.4223 1.14449 12.4126 1.13992 12.4032 1.13585C12.4167 1.13001 12.4286 1.1234 12.4375 1.11832C12.4217 1.12188 12.3979 1.1234 12.3704 1.1234C12.329 1.10968 12.2884 1.10409 12.2558 1.10206C12.3082 1.07564 12.3577 1.04159 12.3488 1.03397C12.3496 1.04693 12.2769 1.06268 12.2195 1.06726C12.2734 1.01593 12.3265 0.947591 12.3183 0.944796C12.3211 0.951402 12.266 0.989511 12.2114 1.01975C12.2203 1.00094 12.2269 0.980365 12.2287 0.958516C12.2383 0.884837 12.1865 0.83631 12.1895 0.837072C12.1885 0.836818 12.2198 0.895761 12.1939 0.951148C12.1768 0.993068 12.1428 1.02127 12.1237 1.03448C12.1207 1.02864 12.1174 1.02381 12.1141 1.01797C12.1115 1.01238 12.1082 1.00653 12.1047 1.00094C12.1209 0.979095 12.1385 0.939969 12.1507 0.905924C12.1636 0.911259 12.1712 0.915324 12.1712 0.91507C12.1717 0.915833 12.1641 0.909989 12.1517 0.902113C12.1634 0.869593 12.1697 0.84317 12.1649 0.843424C12.1674 0.846981 12.1514 0.867052 12.1303 0.889918C12.1273 0.887631 12.1237 0.885853 12.1197 0.884074C12.1184 0.849522 12.1115 0.820558 12.1075 0.804044C12.107 0.819288 12.1011 0.84444 12.0922 0.872133C12.0762 0.866036 12.0579 0.860955 12.0381 0.857398C12.033 0.846981 12.0282 0.836818 12.0231 0.82818C12.0564 0.81065 12.0859 0.800995 12.0917 0.813698C12.0935 0.797946 12.0556 0.7982 12.0104 0.806331C12.0023 0.794135 11.9959 0.787276 11.9936 0.789562C11.9962 0.789816 11.9995 0.796676 12.002 0.807601C11.9675 0.814207 11.9291 0.82564 11.9019 0.837835C11.9002 0.831483 11.8984 0.824877 11.8966 0.818526C11.9009 0.81192 11.9063 0.805568 11.9116 0.799725C11.9251 0.810142 11.9339 0.817509 11.9372 0.819542C11.9342 0.817255 11.9266 0.808363 11.9141 0.796168C11.9431 0.761107 11.9741 0.73189 11.9812 0.736209C11.9797 0.727316 11.936 0.746879 11.8908 0.775081C11.8859 0.771016 11.8814 0.767205 11.8768 0.762885C11.8681 0.741798 11.8587 0.722743 11.8506 0.708261C11.8669 0.701402 11.8798 0.699623 11.8834 0.706483C11.8834 0.697083 11.8681 0.694796 11.8448 0.698099C11.8374 0.686158 11.8313 0.679806 11.8283 0.682347C11.8316 0.682855 11.8346 0.688952 11.8382 0.699115C11.8237 0.701402 11.8069 0.704959 11.7896 0.710548C11.7558 0.695812 11.7165 0.684887 11.6715 0.682855C11.6494 0.682093 11.6268 0.682093 11.6052 0.682347C11.5932 0.670406 11.5798 0.659227 11.564 0.650335C11.5569 0.620863 11.5422 0.598505 11.534 0.585802C11.5358 0.596727 11.5353 0.615274 11.5333 0.636107C11.5015 0.623658 11.4715 0.619339 11.4502 0.61756C11.4136 0.594186 11.3765 0.592916 11.3539 0.595457C11.341 0.58377 11.3252 0.572337 11.3054 0.563444C11.2497 0.538038 11.1817 0.538038 11.1189 0.5482C11.0902 0.53753 11.0595 0.529654 11.0272 0.527113C10.8999 0.505518 10.8521 0.620355 10.8488 0.628739C10.8491 0.629247 10.9118 0.52127 11.0219 0.561412C11.0274 0.562682 11.0325 0.564969 11.0381 0.566747C11.0069 0.57564 10.9784 0.586056 10.9527 0.595965C10.9139 0.606127 10.8745 0.619847 10.8356 0.635091C10.844 0.605111 10.8552 0.574115 10.8659 0.552265C10.8849 0.547692 10.8981 0.545914 10.8974 0.545406C10.8976 0.546422 10.8867 0.545152 10.8692 0.545152C10.8727 0.539308 10.8758 0.534735 10.8783 0.53067C10.8725 0.534481 10.8641 0.539308 10.8552 0.54566C10.8237 0.547184 10.7787 0.554298 10.735 0.581229C10.7099 0.597997 10.6888 0.618831 10.671 0.639664C10.6385 0.646524 10.594 0.658211 10.5508 0.672438C10.561 0.660497 10.5716 0.649318 10.5851 0.639156C10.6654 0.57818 10.7706 0.565731 10.7685 0.56319C10.7701 0.566747 10.6662 0.558109 10.5653 0.610192C10.5173 0.635599 10.4812 0.674471 10.4558 0.710802C10.4278 0.725284 10.4083 0.740274 10.405 0.754501C10.3994 0.760345 10.3961 0.766696 10.3933 0.772794C10.3941 0.754501 10.3969 0.735446 10.4029 0.7169C10.4233 0.664054 10.483 0.635599 10.4812 0.634837C10.4832 0.636869 10.4177 0.643475 10.3722 0.699623C10.343 0.739511 10.3321 0.785751 10.3267 0.814969C10.3204 0.817509 10.3138 0.82005 10.3074 0.823099C10.3031 0.821575 10.299 0.82005 10.2945 0.819288C10.2886 0.80252 10.2823 0.7794 10.2828 0.756026C10.2795 0.713597 10.3229 0.688698 10.3214 0.688444C10.325 0.688698 10.2696 0.69378 10.2485 0.746879C10.2419 0.761361 10.2378 0.776351 10.235 0.791341C10.1913 0.770507 10.1481 0.783211 10.1502 0.777875C10.1476 0.78194 10.1936 0.787276 10.22 0.817255C10.1616 0.822337 10.1037 0.837326 10.1077 0.837326C10.1098 0.836056 10.1723 0.844948 10.2228 0.858414C10.1804 0.876707 10.1377 0.895761 10.0945 0.91507C9.93115 0.988241 9.84883 1.1417 9.74746 1.28016C9.6438 1.42218 9.58054 1.63357 9.58054 1.80913C9.58054 1.99485 9.58257 2.19175 9.63618 2.36299C9.6626 2.44759 9.67073 2.54134 9.6908 2.63153C9.70554 2.70013 9.68242 2.82386 9.76499 2.82666C9.76169 2.92549 9.73908 3.10587 9.63542 3.29007C9.40117 3.27229 9.18572 3.52991 9.0122 3.74154C8.85595 3.78321 8.69893 3.75221 8.54218 3.80277C8.45554 3.83098 8.36992 3.86324 8.28278 3.89551C8.12678 3.90719 7.96875 3.90872 7.82622 3.95242C7.66972 4.00094 7.51982 4.0825 7.36662 4.14856C7.0343 4.29261 6.80539 4.54541 6.54522 4.79007C6.22231 5.09469 5.80742 5.36223 5.59401 5.75399C5.51956 5.80557 5.42861 5.90262 5.39482 5.94886C5.31911 6.05227 5.31733 6.1793 5.3407 6.30379C5.23882 6.53219 5.27922 6.75755 5.30539 7.01924C5.32393 7.20623 5.36967 7.40872 5.44258 7.598C5.45147 7.94022 5.51321 8.23062 5.67073 8.5449C5.74238 8.68819 5.82165 8.82869 5.89101 8.97376C5.97637 9.15211 6.08003 9.21919 6.24009 9.18463C6.27566 9.20343 6.29446 9.21893 6.32241 9.26009C6.38135 9.34571 6.43496 9.40872 6.53455 9.37315C6.56098 9.39678 6.58029 9.43794 6.61662 9.45648C6.64888 9.47325 6.67912 9.47579 6.71088 9.47249C6.76397 9.52915 6.82749 9.58174 6.91667 9.55938C7.00432 9.53804 7.06403 9.4387 7.11687 9.37163C7.16768 9.30862 7.22155 9.25272 7.25483 9.18286C7.27439 9.14144 7.28735 9.10918 7.26575 9.06268C7.25 9.03067 7.22231 9.01746 7.19538 9.00069C7.18903 8.94099 7.14101 8.88687 7.08283 8.86553C7.07292 8.8104 7.03659 8.75831 6.98654 8.7357C7.00127 8.7324 7.01372 8.72681 7.02185 8.71944C7.07622 8.67041 7.02363 8.59571 7.00356 8.54312C6.97637 8.4697 6.94538 8.45801 6.88567 8.40745C6.84629 8.37417 6.8252 8.32183 6.78786 8.2888C6.87957 8.18286 6.79345 7.94327 6.78836 7.82945C6.78379 7.74739 6.78379 7.66151 6.78836 7.5792C6.78862 7.56903 6.78862 7.55862 6.78862 7.5482C6.88567 7.5106 6.95757 7.45877 7.06657 7.3856C7.17327 7.31243 7.27998 7.28092 7.39152 7.24536C7.55132 7.45445 7.51931 7.71741 7.57089 7.97224C7.60366 8.13204 7.6029 8.23392 7.56225 8.39246C7.52007 8.5543 7.54497 8.67498 7.60899 8.81624C7.49949 8.93514 7.42429 9.25552 7.46875 9.40288C7.36865 9.4636 7.2528 9.56776 7.18877 9.62645C7.06682 9.74002 6.94411 9.85968 6.84578 9.98723C6.62932 10.2687 6.43191 10.5492 6.32495 10.8935C6.26829 11.0754 6.1842 11.2842 6.0747 11.4417C5.92785 11.6521 5.85823 11.8035 6.01016 11.9984C5.80869 12.3734 5.17861 13.4982 4.44868 14.3038C4.3186 14.3544 4.2312 14.4207 4.16743 14.5657C4.1311 14.648 4.11103 14.6658 4.04497 14.7202C3.99238 14.7629 3.93064 14.7873 3.90168 14.8526C3.60518 14.9326 3.44995 15.1806 3.31225 15.4476C3.23603 15.5972 3.11027 15.6816 2.98755 15.7903C2.88643 15.8792 2.8346 15.9763 2.76194 16.082C2.53201 16.4153 2.22358 16.7078 1.98933 17.0347C1.87805 17.1907 1.77668 17.3513 1.67734 17.5101C1.63135 17.583 1.58435 17.6493 1.54599 17.7245C1.52515 17.7659 1.50889 17.8188 1.4939 17.8653C1.36992 17.9705 1.25788 18.081 1.1781 18.2367C1.1062 18.378 1.05005 18.5573 0.967226 18.6981C0.816566 18.8124 0.665397 18.9204 0.563009 19.0838C0.503049 19.1783 0.415143 19.2863 0.382114 19.394C0.349086 19.4982 0.388212 19.5335 0.443598 19.5703C0.42937 19.6318 0.436992 19.7052 0.431149 19.7629C0.421494 19.8556 0.387196 19.9425 0.339177 20.0253C0.292175 20.1064 0.28684 20.1836 0.259401 20.2692C0.232978 20.35 0.200712 20.4296 0.173527 20.5083C0.130336 20.6369 0.101372 20.7565 0.080285 20.8955C0.064533 21.003 0.00127077 21.2304 0.0741875 21.3376C0.0165147 21.4448 0.162856 21.507 0.259655 21.4174C0.266261 21.4501 0.278456 21.4748 0.321901 21.4844C0.368903 21.4946 0.417175 21.4748 0.449187 21.4412C0.453253 21.4727 0.480946 21.4893 0.51499 21.4994C0.567328 21.5139 0.602135 21.4961 0.634909 21.4623C0.657521 21.4979 0.694868 21.5162 0.744157 21.52C0.837399 21.5286 0.886433 21.5111 0.927846 21.4369C0.995173 21.5703 1.29294 21.5228 1.36941 21.4039C1.4596 21.2647 1.29726 21.0355 1.2561 20.9029C1.21087 20.7555 1.1781 20.582 1.1781 20.4245C1.17835 20.2438 1.18674 20.129 1.29573 20.0035C1.5437 20.1158 2.29904 20.4423 2.68445 20.4423C2.68445 20.4423 3.25102 19.5116 3.54294 18.9486C3.62271 18.8975 3.70732 18.8477 3.77134 18.7827C3.91768 18.6348 4.02998 18.4598 4.13897 18.284C4.24263 18.1176 4.3562 17.9468 4.47637 17.7873C4.58511 17.642 4.75178 17.5291 4.84019 17.3665C4.94258 17.1788 5.04649 17.0213 5.19868 16.8571C5.32902 16.7159 5.41591 16.5701 5.49594 16.4143C6.16082 15.8338 7.65727 14.8719 8.18166 14.5398C8.40269 14.4694 8.65371 14.4252 8.85798 14.365C9.02592 14.3155 9.19868 14.2715 9.37195 14.2431C9.44792 14.2301 9.52998 14.2098 9.61357 14.1895C9.71494 14.2271 9.81428 14.2761 9.92353 14.2908C9.97561 14.2979 10.0295 14.3028 10.0838 14.3046L10.0826 14.3269C10.2172 14.4278 10.2904 14.5037 10.4627 14.5411C10.4934 14.5482 10.5252 14.554 10.5569 14.5591C10.7246 14.6735 10.9164 14.7451 11.0747 14.8899C11.1458 14.9545 11.2134 15.0149 11.2952 15.066C11.3498 15.1003 11.4075 15.1221 11.4665 15.1394C11.7698 15.41 12.6164 16.1696 12.8265 16.413C12.8265 16.413 13.1326 16.6755 13.157 17.0693C13.157 17.0693 13.2495 18.1707 13.5864 18.5929C13.4538 18.8556 13.5274 19.2766 13.5008 19.5485C13.4855 19.705 13.2691 20.3544 13.5084 20.4575L13.4266 20.7286C13.4266 20.7286 13.1573 21.3305 13.892 21.3193C13.892 21.3193 14.0823 21.3068 14.1979 21.2649C14.1979 21.2649 14.6453 21.1877 15.0803 21.2532C15.0803 21.2532 15.8834 21.4148 16.1227 21.3193C16.1857 21.412 16.4428 21.3594 16.518 21.3173C16.5772 21.2845 16.642 21.1991 16.5818 21.1399C16.5493 21.1071 16.518 21.1204 16.4764 21.1224C16.4466 21.1234 16.4177 21.1206 16.3882 21.1173C16.3539 21.0919 16.326 21.0576 16.2868 21.0368C16.2444 21.0152 16.2033 21.0101 16.158 21.003C16.0892 20.9921 16.017 20.9905 15.9515 20.9666C15.5241 20.7515 14.888 20.2654 14.7736 20.1765L15.656 19.9776L15.3371 15.7573C15.4233 15.0185 14.9942 14.5533 14.9942 14.5533L12.3676 12.0312C12.2779 11.8991 12.1954 11.7626 12.1067 11.6292C12.0287 11.5126 11.9759 11.3805 11.8582 11.2893C11.7693 11.2207 11.6657 11.237 11.5747 11.2006C11.5417 10.9529 11.4985 10.6371 11.3013 10.5337C11.2846 10.4105 11.2561 10.2929 11.2193 10.1666C11.1916 10.0723 11.1613 9.91964 11.1161 9.82412C11.1471 9.71487 11.1278 9.56294 11.124 9.47478C11.1197 9.3828 11.124 9.28575 11.0803 9.23824C11.5282 8.95725 12.0297 8.23519 12.0297 8.23519C12.2752 7.93641 12.765 7.47173 12.765 7.47173C13.2795 7.05455 14.6758 6.81624 14.6758 6.81624C15.8641 6.6135 17.5051 6.13662 17.5051 6.13662C17.9952 6.00552 18.779 5.50476 18.779 5.50476C18.6578 5.21563 18.6951 4.3109 18.704 4.12976C18.8354 4.07793 18.9914 4.00272 19.111 3.92091C19.2721 3.81141 19.3869 3.64932 19.4944 3.49612C19.5823 3.36908 19.6768 3.16456 19.6179 3.0073L19.6136 3.00476C19.6438 2.95699 19.6801 2.90694 19.7139 2.8668C19.7383 2.86553 19.7647 2.86731 19.7891 2.86832C19.8214 2.92091 19.935 3.03397 19.9842 2.94657C20.0018 2.91685 19.9159 2.75628 19.89 2.73697ZM11.8526 0.800233C11.8448 0.806076 11.8366 0.812428 11.8295 0.818526C11.8191 0.793627 11.8041 0.767967 11.7881 0.746117C11.7924 0.742814 11.7967 0.739766 11.8011 0.736971C11.8186 0.743322 11.8349 0.751198 11.8493 0.759074C11.8509 0.772286 11.8521 0.786005 11.8526 0.800233ZM11.7769 0.81065C11.7637 0.803282 11.751 0.795914 11.7378 0.789308C11.7462 0.780924 11.7558 0.772032 11.7665 0.763394C11.7708 0.778638 11.7746 0.794898 11.7769 0.81065ZM11.9144 0.914054C11.9162 0.909735 11.9192 0.904654 11.9245 0.89881C11.9421 0.894745 11.9596 0.890934 11.9769 0.887631C11.9891 0.884837 12.0008 0.883058 12.0125 0.882042C12.0132 0.892459 12.0135 0.903383 12.0135 0.913292C11.9815 0.903129 11.9479 0.910243 11.9144 0.914054ZM12.5135 1.57107C12.5135 1.57107 12.5135 1.57107 12.513 1.57107C12.5135 1.57056 12.5137 1.5703 12.514 1.5698C12.5137 1.5703 12.5137 1.57056 12.5135 1.57107ZM12.6021 1.52229C12.6034 1.51949 12.6044 1.51619 12.6052 1.51314C12.6044 1.5172 12.6034 1.52127 12.6021 1.52508C12.6021 1.52406 12.6021 1.5233 12.6021 1.52229ZM12.5689 1.62264C12.5696 1.62137 12.5701 1.6201 12.5709 1.61883C12.5831 1.61222 12.5935 1.60537 12.6019 1.59952C12.5912 1.60892 12.58 1.61654 12.5689 1.62264ZM12.6194 1.58123C12.6197 1.57945 12.6194 1.57767 12.6186 1.5764C12.6192 1.5825 12.6085 1.58809 12.592 1.59368C12.6057 1.58606 12.6197 1.57615 12.6329 1.56294C12.6286 1.56929 12.624 1.57564 12.6194 1.58123ZM12.5437 1.22986C12.5785 1.2667 12.5775 1.30582 12.5635 1.33936C12.56 1.3386 12.5572 1.33783 12.5549 1.33707C12.5483 1.33606 12.5414 1.33529 12.5351 1.33453C12.5391 1.29769 12.5333 1.25298 12.5025 1.21004C12.5173 1.21436 12.5307 1.22096 12.5437 1.22986ZM12.4431 1.20115C12.4477 1.20369 12.452 1.20572 12.456 1.20826C12.5053 1.24154 12.5198 1.29007 12.5224 1.33275C12.5178 1.33047 12.5135 1.32869 12.5097 1.32716C12.4736 1.26034 12.4187 1.23545 12.3506 1.21334C12.3791 1.20674 12.4111 1.20064 12.4431 1.20115ZM12.2716 1.16532C12.2599 1.16761 12.2513 1.16888 12.2477 1.1671C12.2452 1.16787 12.2426 1.16863 12.2406 1.16888C12.2393 1.16863 12.2381 1.16761 12.2373 1.16685C12.2477 1.16609 12.2586 1.16558 12.2716 1.16532ZM12.1247 0.896016C12.1227 0.897794 12.1212 0.899318 12.1197 0.901097C12.1197 0.89881 12.1197 0.896778 12.1197 0.894745C12.1214 0.895253 12.123 0.895507 12.1247 0.896016ZM12.0877 0.886361C12.0818 0.902367 12.0752 0.918627 12.0683 0.933363C12.0635 0.917103 12.0564 0.89881 12.049 0.881534C12.0625 0.882296 12.0755 0.884329 12.0877 0.886361ZM12.0076 0.836818C12.0086 0.842154 12.0091 0.847743 12.0102 0.853587C12.0008 0.85257 11.9914 0.85257 11.9817 0.852824C11.9901 0.847235 11.999 0.8419 12.0076 0.836818ZM11.8834 0.779146C11.8834 0.779146 11.8829 0.7794 11.8829 0.779654C11.8829 0.779146 11.8829 0.779146 11.8826 0.778892C11.8829 0.779146 11.8829 0.779146 11.8834 0.779146ZM11.8417 0.712581C11.8435 0.720965 11.845 0.730873 11.8471 0.741544C11.8384 0.736209 11.829 0.730365 11.8191 0.725284C11.827 0.720203 11.8344 0.716137 11.8417 0.712581ZM11.6705 0.717408C11.6989 0.715121 11.7261 0.717662 11.7515 0.722743L11.752 0.722997C11.7238 0.733922 11.6977 0.746625 11.6794 0.759837C11.669 0.754755 11.6588 0.750182 11.6494 0.745609C11.6458 0.737987 11.6413 0.729603 11.6357 0.720457C11.6471 0.719186 11.6588 0.717916 11.6705 0.717408ZM11.5277 0.670152C11.5269 0.675995 11.5259 0.681585 11.5244 0.68692C11.5208 0.687428 11.5168 0.687936 11.513 0.687936C11.5038 0.669644 11.4909 0.651605 11.4738 0.636615C11.4919 0.644491 11.5114 0.65567 11.5277 0.670152ZM11.4365 0.650081C11.4472 0.664308 11.454 0.679298 11.4581 0.693526C11.44 0.695812 11.4228 0.697845 11.4078 0.699369C11.4065 0.688444 11.4042 0.676757 11.3999 0.664308C11.3953 0.655416 11.3854 0.628993 11.3613 0.603079C11.3852 0.608414 11.4169 0.620101 11.4365 0.650081ZM11.3331 0.687936C11.3338 0.690731 11.3349 0.693272 11.3356 0.695812C11.3161 0.682093 11.2955 0.66939 11.2744 0.657448C11.2708 0.652113 11.267 0.646778 11.2622 0.641696C11.2569 0.63128 11.2335 0.609938 11.1997 0.588343C11.2889 0.605873 11.3387 0.665324 11.3331 0.687936ZM10.7574 0.60816C10.781 0.584532 10.8105 0.570558 10.8361 0.561412C10.825 0.571574 10.8135 0.584024 10.8051 0.60003C10.7914 0.618831 10.7818 0.639918 10.7741 0.659735C10.7508 0.66939 10.7274 0.679044 10.7053 0.687936C10.7172 0.661259 10.7337 0.63255 10.7574 0.60816ZM10.501 0.751198C10.5427 0.719948 10.6067 0.683617 10.6555 0.659735C10.6392 0.681585 10.6275 0.702164 10.6202 0.716392C10.6184 0.716646 10.6171 0.717662 10.6156 0.717662C10.577 0.72757 10.5386 0.739003 10.501 0.751198Z" fill="#DCDCDC"/>
</svg>
