<svg width="21" height="31" viewBox="0 0 21 31" fill="none" xmlns="http://www.w3.org/2000/svg">
<path d="M13.0861 2.91161C13.0861 4.49944 11.8021 5.7856 10.2179 5.7856C8.63262 5.7856 7.34863 4.49944 7.34863 2.91161C7.34863 1.32523 8.63262 0.0390625 10.2179 0.0390625C11.8021 0.0390625 13.0861 1.32523 13.0861 2.91161Z" fill="#DCDCDC"/>
<path d="M10.8862 7.69794C10.3998 7.49683 9.83927 7.68378 9.56955 8.13574L8.88128 9.29013C8.68307 9.62265 8.22095 9.6742 7.95486 9.3925L6.73041 8.0958L8.98074 6.2898V6.28835C8.30771 6.04077 7.73088 5.59789 7.31559 5.02832L6.25449 5.66941C5.28016 6.2604 4.68445 7.31714 4.68445 8.45773C4.68445 9.04727 4.91787 9.61321 5.33388 10.0303L7.05785 11.7554C7.93961 12.6386 9.41346 12.4647 10.0643 11.3996L11.3883 9.23858C11.7295 8.67953 11.4914 7.94661 10.8862 7.69794Z" fill="#DCDCDC"/>
<mask id="mask0_227_7078" style="mask-type:luminance" maskUnits="userSpaceOnUse" x="0" y="5" width="21" height="26">
<path d="M0.5 5.31445H20.5V30.1273H0.5V5.31445Z" fill="white"/>
</mask>
<g mask="url(#mask0_227_7078)">
<path d="M19.2861 7.34946H15.9017L12.8821 5.32129C12.2232 6.05059 11.2747 6.51307 10.2179 6.51307C10.0375 6.51307 9.86256 6.49782 9.68903 6.47205L9.80883 7.0242C10.0197 6.93816 10.2484 6.89133 10.483 6.89133C10.7164 6.89133 10.9451 6.93598 11.1632 7.02529C11.6486 7.22603 12.0203 7.62753 12.1822 8.12668C12.3452 8.62727 12.2806 9.17071 12.0062 9.61831L10.6837 11.7804C10.1969 12.5743 9.35034 13.0488 8.4192 13.0488C7.71096 13.0488 7.04592 12.7729 6.54423 12.2701L5.41125 11.1357L4.6845 15.8437L0.642315 28.2995C0.352629 29.1899 1.01513 30.1047 1.95099 30.1047H2.29113C2.87631 30.1047 3.39797 29.7337 3.59146 29.1805L7.46956 17.7125C7.62783 17.246 8.26311 17.1919 8.49762 17.6243L12.0672 24.2057V28.4193C12.0672 29.1805 12.6828 29.798 13.4441 29.798C14.2039 29.798 14.8206 29.1805 14.8206 28.4193V23.5926L11.3941 15.8546C10.9051 14.7506 10.9886 13.4761 11.6159 12.4451L13.5599 9.25529L15.2991 9.76751H19.2861C19.9533 9.76751 20.4938 9.22589 20.4938 8.55794C20.4938 7.89072 19.9533 7.34946 19.2861 7.34946Z" fill="#DCDCDC"/>
</g>
</svg>
