<svg width="21" height="25" viewBox="0 0 21 25" fill="none" xmlns="http://www.w3.org/2000/svg">
<mask id="mask0_227_7042" style="mask-type:luminance" maskUnits="userSpaceOnUse" x="0" y="0" width="21" height="20">
<path d="M0.5 0.0566406H20.5V19.6303H0.5V0.0566406Z" fill="white"/>
</mask>
<g mask="url(#mask0_227_7042)">
<path d="M20.5 6.28943C20.5 10.5732 19.9022 15.9526 18.0095 17.8453C16.9136 19.0405 9.14338 20.0368 7.5496 19.439C6.1548 18.9409 3.26612 18.642 0.974651 12.3662C-0.519498 8.38135 2.07057 7.08646 3.06687 7.08646C3.36575 10.0751 4.56102 12.8644 5.25842 13.2629C4.8599 12.167 4.26213 7.48498 4.26213 6.1898C4.1625 1.70706 5.75657 0.113281 12.3312 0.113281C18.9062 0.113281 20.5 1.70706 20.5 6.28943Z" fill="#DCDCDC"/>
</g>
<path d="M18.5077 18.9412C18.5077 18.9412 15.4195 20.1368 11.6339 19.8379C8.34667 19.539 6.55334 18.3438 6.55334 18.3438C6.55334 20.6349 6.85223 22.6272 7.25075 23.0257C7.84853 23.6235 9.24305 24.0217 12.5305 24.0217C15.818 24.0217 17.3121 23.7232 17.7107 23.0257C18.3084 21.8302 18.5077 18.9412 18.5077 18.9412Z" fill="#DCDCDC"/>
</svg>
