<svg width="21" height="26" viewBox="0 0 21 26" fill="none" xmlns="http://www.w3.org/2000/svg">
<path d="M19.9094 24.1628C19.6256 23.9164 19.4725 23.7722 19.2683 23.2129C19.1308 22.834 19.2459 21.7843 19.3351 21.1408L20.3533 20.9024C20.3533 20.9024 19.9238 18.322 19.7198 17.8923C19.5155 17.4625 18.492 15.6607 17.9398 15.1888C17.3876 14.7184 16.2425 14.1235 16.181 13.9189C16.1195 13.7147 15.8746 13.2428 15.7306 12.9976C15.7268 12.9926 15.7241 12.9858 15.7203 12.9793C15.7701 12.9926 15.8392 12.9976 15.8119 12.9019C15.7712 12.7592 15.7845 12.8548 15.7294 12.7174C15.6744 12.5811 15.7974 12.7041 15.6744 12.5811C15.5658 12.4722 15.7032 12.4592 15.5266 12.4577C15.4822 12.3005 15.4533 12.1775 15.4533 12.1775C15.4533 12.1775 16.4047 12.4433 16.4453 11.154C16.4859 9.86439 16.4453 7.16096 15.6679 6.44419C14.8905 5.72742 14.4207 5.78894 14.2361 5.54256C14.1051 5.36682 13.9942 5.22288 13.9418 5.15459C14.1184 5.03272 14.3106 4.83873 14.4875 4.50728C14.7951 3.92533 14.63 3.34367 14.5228 3.07903C14.5187 3.06696 14.5164 3.05401 14.5122 3.04224C14.5228 3.05019 14.5346 3.05784 14.5449 3.06696C14.5635 3.08404 14.5791 3.10258 14.5947 3.12201C14.6053 3.15616 14.6144 3.1903 14.6223 3.22563C14.6588 3.38164 14.6812 3.5403 14.7242 3.68572C14.7454 3.75783 14.7713 3.82583 14.8042 3.88735C14.8134 3.90443 14.8225 3.92032 14.8328 3.93592C14.8328 3.9371 14.8343 3.93975 14.8343 3.94122C14.854 4.01334 14.8799 4.08281 14.9114 4.14433C14.9429 4.20585 14.9809 4.25972 15.0215 4.30417C15.0618 4.34862 15.1066 4.38277 15.1469 4.41044C15.189 4.43664 15.2255 4.45606 15.2582 4.47049C15.2741 4.47726 15.2885 4.48373 15.3014 4.48903C15.3147 4.49286 15.325 4.49669 15.3341 4.50081C15.3524 4.50728 15.3618 4.50993 15.3618 4.50993C15.3618 4.50993 15.3524 4.5061 15.3341 4.49933C15.325 4.49669 15.3147 4.49168 15.3014 4.48756C15.2897 4.48226 15.2752 4.47579 15.2582 4.46931C15.227 4.45489 15.189 4.43399 15.1484 4.40779C15.1092 4.38012 15.0659 4.34479 15.0253 4.30034C14.9847 4.2556 14.9482 4.20203 14.9179 4.14021C14.892 4.08664 14.8696 4.02777 14.8525 3.96477C14.8734 3.99362 14.8943 4.02099 14.9179 4.04484C14.96 4.08782 15.0044 4.12196 15.045 4.14963C15.0868 4.17583 15.1248 4.19408 15.1563 4.2085C15.1719 4.21498 15.1863 4.22175 15.1993 4.22675C15.2125 4.23088 15.2228 4.2347 15.232 4.23735C15.2505 4.24383 15.2596 4.24648 15.2596 4.24648C15.2596 4.24648 15.2505 4.24265 15.232 4.23735C15.2228 4.2347 15.2125 4.23088 15.1993 4.22558C15.1863 4.22028 15.1719 4.2138 15.1563 4.20733C15.1248 4.1929 15.0868 4.17318 15.045 4.14698C15.0044 4.11931 14.9611 4.08546 14.9205 4.04219C14.9011 4.02099 14.8825 3.99892 14.8658 3.9739C14.8681 3.97655 14.8708 3.98037 14.8734 3.98302C14.8996 4.00804 14.9155 4.02247 14.9155 4.02247C14.9155 4.02247 14.9011 4.00804 14.8749 3.98184C14.8696 3.97655 14.8631 3.9686 14.8578 3.96094C14.854 3.95565 14.8499 3.94917 14.846 3.94387C14.846 3.9424 14.8446 3.94122 14.8446 3.93975C14.8187 3.84291 14.8016 3.73811 14.7845 3.63332C14.7857 3.62154 14.7884 3.60977 14.791 3.59652C14.7948 3.63185 14.8001 3.66599 14.8107 3.69749C14.8134 3.70662 14.816 3.71456 14.8187 3.72222C14.821 3.73016 14.8251 3.73811 14.829 3.74577C14.8328 3.75371 14.8355 3.76166 14.8396 3.76814C14.8434 3.77608 14.8487 3.78138 14.8525 3.78786C14.8681 3.81524 14.8893 3.83496 14.9061 3.85468C14.9258 3.87028 14.9429 3.88618 14.9573 3.8953C14.9414 3.8847 14.9258 3.8691 14.9061 3.8535C14.8905 3.83378 14.8696 3.81406 14.854 3.78668C14.8499 3.77991 14.8446 3.77344 14.8422 3.76696C14.8381 3.75901 14.8355 3.75254 14.8316 3.74459C14.829 3.73664 14.8237 3.72899 14.821 3.72104C14.8187 3.71309 14.816 3.70397 14.8134 3.69602C14.8028 3.66217 14.7975 3.62537 14.7948 3.58593C14.7948 3.57827 14.7948 3.5715 14.7937 3.56385C14.7963 3.55207 14.7989 3.5403 14.8016 3.52705C14.8042 3.51793 14.8054 3.5088 14.8081 3.49968C14.8513 3.603 14.8931 3.70662 14.9429 3.80081C14.9782 3.86793 15.0174 3.92945 15.0606 3.98302C15.1039 4.03689 15.1522 4.08134 15.2019 4.11666C15.2517 4.15081 15.3014 4.17583 15.3459 4.19408C15.3918 4.21115 15.4324 4.22293 15.4677 4.2294C15.4848 4.23352 15.5004 4.23588 15.5134 4.23853C15.5266 4.24 15.5384 4.24118 15.5475 4.24265C15.5384 4.24118 15.5266 4.24 15.5134 4.23735C15.5004 4.2347 15.4848 4.23088 15.4677 4.22823C15.4336 4.22028 15.393 4.2085 15.3473 4.19143C15.3029 4.17318 15.2532 4.14816 15.2046 4.11284C15.1563 4.07751 15.1092 4.03277 15.0659 3.9792C15.0227 3.92533 14.9847 3.8638 14.952 3.79698C14.9011 3.69749 14.859 3.58593 14.8146 3.47466C14.8198 3.45229 14.8251 3.43021 14.829 3.40637C14.8328 3.38547 14.8355 3.36457 14.8396 3.34484C14.8407 3.32394 14.8446 3.30304 14.8434 3.28214V3.25182C14.8422 3.24005 14.8422 3.23092 14.8396 3.22033C14.8355 3.19943 14.829 3.17971 14.821 3.16146C14.8042 3.12466 14.778 3.09316 14.7492 3.06961C14.7204 3.04607 14.6903 3.02781 14.6615 3.01457C14.625 2.9975 14.5894 2.98572 14.5608 2.97807C14.5567 2.96747 14.5517 2.95834 14.5464 2.94775C14.7454 2.85885 15.3668 2.5062 15.0868 1.66227C14.9638 1.29019 14.6471 0.972868 14.2453 0.915467C13.8526 0.858949 13.2271 1.13536 13.3816 1.63607C13.3816 1.63607 11.9289 0.834223 10.8427 2.31869C10.8427 2.31869 10.5978 2.16415 10.3323 2.39346C10.0691 2.62542 9.95256 2.71461 9.78124 2.62277C9.78124 2.62277 9.87426 2.76701 9.99318 2.8038C9.99318 2.8038 9.91459 2.97542 9.69882 2.96894C9.69882 2.96894 9.73532 3.22033 10.1633 3.12083C10.1633 3.12083 9.95403 3.26772 9.99848 3.59917L10.1477 3.47083C10.1477 3.47083 10.1045 3.70514 10.2746 3.96595C10.2746 3.96595 10.3087 3.75783 10.4015 3.6554C10.4015 3.6554 10.3308 3.80081 10.4971 4.01982C10.4971 4.01982 10.3923 3.82966 10.6882 3.74724C10.6882 3.74724 10.6776 3.80493 10.7129 3.93327C10.6973 3.9268 10.6855 3.91885 10.6776 3.9109C10.6449 3.87293 10.6908 3.95417 10.6908 3.95417L10.6528 3.9371C10.6528 3.9371 10.6632 3.97655 10.692 3.99627C10.7208 4.01599 10.6829 4.02629 10.6829 4.02629C10.6829 4.02629 10.7079 4.05249 10.7562 4.06044C10.7668 4.08782 10.7785 4.11549 10.793 4.14698C10.9198 4.42869 10.9984 4.58058 10.9028 4.64239C10.8074 4.70509 10.6802 4.85051 10.7208 4.98562C10.7626 5.12044 10.9028 5.15076 10.9107 5.23053C10.9184 5.3106 10.8595 5.39832 10.9237 5.43246C10.9878 5.46661 10.9696 5.47574 10.9905 5.54373C11.0114 5.61203 11.082 5.63028 11.1188 5.69327C11.1344 5.72065 11.2419 5.81514 11.4067 5.89373C11.0794 6.00265 10.5796 6.17956 10.3179 6.39562C9.96963 6.68262 9.19634 7.35495 9.06388 7.48712C8.69239 7.85949 8.10337 8.55271 7.63239 8.55271C7.16229 8.55271 4.99372 8.24598 4.99372 8.24598L4.9899 8.2919C4.75176 8.25511 4.57102 8.22361 4.54894 8.21714C4.4886 8.19741 4.30933 8.00372 4.11829 7.634C3.92725 7.26311 3.56724 6.95638 3.50454 6.90546C3.44155 6.85424 2.9691 6.68262 2.88667 6.72207C2.80425 6.76122 2.93642 6.90546 2.93642 6.90546C2.88167 7.05882 3.08949 7.12034 3.08949 7.12034C3.63789 7.44414 3.54899 7.72055 3.54899 7.72055C3.54899 7.72055 3.13423 7.39822 3.01119 7.46887C2.88815 7.53834 3.01884 7.69435 3.01884 7.69435C3.01884 7.69435 2.98234 7.72702 2.94054 7.72702C2.89845 7.72702 2.8593 7.81357 2.8908 7.84506C2.922 7.87656 3.00442 7.96546 3.20871 7.91453C3.20871 7.91453 3.32263 7.9578 3.36707 8.04435C3.41152 8.13059 3.42212 8.22626 3.55164 8.34695C3.68116 8.46882 3.74003 8.54623 3.8042 8.6366C3.86837 8.72697 3.9455 8.75199 4.15243 8.79644C4.28725 8.82529 4.64579 8.95246 4.93367 9.05313L4.82888 10.479C4.82888 10.479 8.22377 10.5196 8.67414 10.4175C9.12422 10.3154 9.86896 9.86439 9.86896 9.86439C9.86896 9.86439 10.2499 10.4084 10.3373 10.9665C10.1842 11.0124 9.84806 11.154 9.81774 11.2246C9.78124 11.3085 9.97611 11.3283 9.97611 11.3283C10.0365 11.479 10.2328 11.3871 10.2328 11.3871C10.2981 11.3742 10.3585 11.3662 10.4132 11.3609C10.4341 11.4475 10.4592 11.5378 10.4854 11.6297C10.4436 11.6494 10.4147 11.673 10.4041 11.7003C10.3623 11.8222 10.5233 11.8575 10.5534 11.8628C10.5545 11.8669 10.556 11.8708 10.5572 11.8746C10.5534 11.8905 10.5442 11.922 10.5219 11.9414C10.4907 11.9691 10.518 12.0606 10.5625 12.0633C10.5743 12.0648 10.594 12.0659 10.6161 12.0633C10.6749 12.2546 10.7326 12.4383 10.7744 12.5902C10.747 12.6058 10.7247 12.6217 10.7247 12.6373C10.7247 12.6779 10.7862 12.7265 10.7117 12.8012C10.6372 12.8757 10.8006 12.8901 10.7247 12.9649C10.6502 13.0397 10.7117 13.0883 10.7117 13.0883L10.76 13.151C10.5545 13.5115 10.0156 14.0723 9.77741 14.3096C9.48011 14.6069 8.24349 15.0472 7.77369 15.4561C7.30388 15.865 6.5565 16.5726 6.11672 17.013C5.67694 17.4534 3.78595 20.863 3.78595 20.863L4.24398 21.1947C3.8566 21.7714 3.11451 22.8758 2.95497 23.1354C2.73626 23.4904 2.3006 23.6267 1.70098 23.8457C1.10166 24.0645 0.473488 24.3097 0.500864 24.556C0.528534 24.8024 1.37394 24.7197 1.83727 24.6647C2.3006 24.6096 4.05294 24.5481 4.21631 24.5481C4.37998 24.5481 4.27783 24.0162 4.17598 23.7698C4.09592 23.577 4.969 22.4684 5.35108 21.9966L5.79086 22.3162C5.79086 22.3162 6.83379 20.7805 7.01835 20.432C7.20292 20.0835 7.19261 20.0741 7.28416 19.9811C7.37571 19.8895 8.40833 19.1621 9.12422 18.773C9.56783 18.5319 10.6069 17.9656 11.4261 17.5267C11.4052 18.2093 11.4591 18.8816 11.6672 19.347L12.1044 19.1777C12.1044 19.1777 11.9445 18.2802 11.9654 17.2385C12.1108 17.1611 12.2365 17.0954 12.3345 17.0457C12.3501 17.549 12.4184 18.0179 12.5768 18.3694L13.0136 18.2002C13.0136 18.2002 12.9103 17.6211 12.8803 16.8517C12.9118 16.8661 12.9524 16.8858 13.0086 16.9094C13.3566 17.0521 14.1066 17.2647 14.5555 17.3877C15.0056 17.5111 15.851 17.8725 16.0959 18.1177C16.3405 18.3626 16.8627 19.1321 17.1597 19.4282C17.457 19.7255 17.5277 20.1044 17.6507 20.5342C17.7738 20.9639 17.7226 21.517 17.7226 21.517L17.9504 21.4632C18.0681 22.1958 18.2983 23.7304 18.2409 24.0842C18.14 24.6973 18.3272 24.4471 18.6033 24.5716C18.8794 24.6962 19.3324 24.9372 19.4999 25.0827C19.6674 25.2281 19.882 25.1783 20.0574 25.0435C20.2329 24.9084 20.2564 25.0303 20.4513 24.894C20.6503 24.7592 20.1934 24.4092 19.9094 24.1628ZM14.736 3.68424C14.6956 3.5403 14.6744 3.38017 14.6406 3.22445C14.6368 3.2059 14.6315 3.18648 14.6273 3.16793C14.6341 3.17971 14.6406 3.19148 14.6471 3.20325C14.655 3.22033 14.6641 3.23887 14.6721 3.25712C14.7021 3.32924 14.723 3.40637 14.7401 3.48378C14.753 3.5403 14.7636 3.5977 14.7739 3.65422C14.7701 3.69101 14.7689 3.72634 14.7728 3.76019C14.7739 3.76961 14.7739 3.77873 14.7754 3.78668C14.7766 3.79581 14.7792 3.80346 14.7807 3.81141C14.7807 3.81288 14.7819 3.81524 14.7819 3.81671C14.7636 3.77461 14.7492 3.73016 14.736 3.68424ZM14.8278 3.91355C14.8225 3.90443 14.8172 3.8953 14.8119 3.88618C14.8069 3.87558 14.8016 3.8638 14.7963 3.85203C14.7937 3.84673 14.791 3.84026 14.7898 3.83378C14.7884 3.82583 14.7857 3.81788 14.7845 3.81023C14.7831 3.80228 14.7807 3.79316 14.7792 3.78521C14.778 3.77608 14.778 3.76814 14.7766 3.75901C14.7739 3.73546 14.7754 3.71044 14.778 3.68572C14.7937 3.76284 14.8093 3.84026 14.8278 3.91355ZM14.7807 3.60447C14.7728 3.56238 14.7663 3.52058 14.7571 3.47848C14.7413 3.39989 14.7204 3.32129 14.6903 3.248C14.6877 3.24005 14.6839 3.23357 14.6812 3.2271C14.7086 3.27272 14.7336 3.32277 14.7557 3.37251C14.7663 3.39341 14.7754 3.41578 14.7845 3.43786C14.7845 3.44846 14.7845 3.45906 14.7845 3.46818C14.7845 3.49968 14.7857 3.5297 14.7884 3.55973C14.7857 3.57415 14.7831 3.59005 14.7807 3.60447ZM14.7963 3.51793C14.7963 3.50086 14.7963 3.48525 14.7963 3.46818C14.7963 3.46671 14.7963 3.46553 14.7963 3.46406C14.7989 3.46936 14.8016 3.47583 14.8042 3.48113C14.8016 3.49291 14.7989 3.50468 14.7963 3.51793ZM14.7386 3.08669C14.7663 3.10759 14.7898 3.13643 14.8069 3.1694C14.8146 3.18648 14.821 3.20473 14.8251 3.22298C14.8278 3.2321 14.8278 3.2427 14.829 3.25182L14.8304 3.28214C14.8316 3.29245 14.8304 3.30304 14.8304 3.31217L14.829 3.34219C14.8263 3.36339 14.8237 3.38282 14.8198 3.40401C14.8172 3.42079 14.8134 3.43668 14.8107 3.45376C14.8069 3.44316 14.8028 3.43404 14.7989 3.42491C14.7989 3.39724 14.7989 3.36986 14.7989 3.34219C14.7989 3.32129 14.7963 3.30039 14.7963 3.27949C14.7925 3.2583 14.7925 3.2374 14.7872 3.21768C14.7845 3.20738 14.7833 3.19825 14.7807 3.18765C14.7766 3.17706 14.7739 3.16793 14.7701 3.15763C14.7622 3.13791 14.7519 3.12083 14.7401 3.10376C14.723 3.08139 14.7021 3.06314 14.6797 3.04754C14.6983 3.05931 14.7192 3.07109 14.7386 3.08669ZM14.6379 3.04871C14.6694 3.06461 14.6983 3.08669 14.7218 3.11553C14.7336 3.12996 14.7427 3.14703 14.7504 3.1641C14.7545 3.17323 14.7571 3.18236 14.761 3.19148C14.7636 3.20208 14.7663 3.2112 14.7689 3.2218C14.7713 3.2321 14.7739 3.24152 14.7739 3.25182L14.778 3.28214C14.7792 3.30304 14.7819 3.32277 14.7819 3.34367C14.7831 3.36074 14.7831 3.37781 14.7831 3.39459C14.7792 3.38547 14.7754 3.37516 14.7713 3.36457C14.7386 3.29127 14.7033 3.21915 14.6577 3.15233C14.6471 3.13526 14.6341 3.12083 14.6223 3.10376C14.6156 3.09581 14.6079 3.08669 14.6014 3.07903C14.5961 3.06196 14.5894 3.04342 14.5829 3.02634C14.6014 3.03311 14.6197 3.03959 14.6379 3.04871ZM14.5593 3.02134C14.5635 3.03046 14.5673 3.03959 14.5711 3.05019C14.5582 3.03841 14.5449 3.02634 14.5293 3.01604C14.5346 3.01722 14.5399 3.01722 14.5449 3.01869C14.5502 3.01869 14.554 3.01987 14.5593 3.02134ZM14.5305 2.95687C14.5331 2.96217 14.5358 2.96747 14.5384 2.97277C14.532 2.9713 14.5255 2.97012 14.5187 2.96894C14.5149 2.96747 14.5122 2.96747 14.5084 2.96747C14.5149 2.96364 14.5214 2.96099 14.5305 2.95687Z" fill="#DCDCDC"/>
</svg>
