<svg width="20" height="22" viewBox="0 0 20 22" fill="none" xmlns="http://www.w3.org/2000/svg">
<mask id="mask0_227_7066" style="mask-type:luminance" maskUnits="userSpaceOnUse" x="3" y="10" width="17" height="12">
<path d="M3.14417 10.9922H20V21.7887H3.14417V10.9922Z" fill="white"/>
</mask>
<g mask="url(#mask0_227_7066)">
<path d="M7.75984 12.0551C7.94311 12.1778 8.08855 12.2752 8.26287 12.392C8.40472 12.2517 8.55195 12.1213 8.68052 11.9746C8.81138 11.8253 8.9742 11.7599 9.15951 11.7057C9.66381 11.558 10.1638 11.3944 10.6635 11.23C10.9543 11.1344 11.2437 11.046 11.5565 11.071C11.6608 11.0795 11.7692 11.0744 11.8719 11.0547C12.3474 10.9632 12.2771 11.0422 12.4455 11.3302C12.7655 11.8772 13.0817 12.4262 13.3917 12.9788C13.4771 13.1312 13.5533 13.2935 13.6013 13.4606C13.6734 13.7111 13.5863 13.8095 13.3332 13.8287C13.0671 13.8489 12.8726 13.7244 12.7446 13.5143C12.5621 13.215 12.4021 12.9014 12.2403 12.5896C12.1378 12.3922 12.0626 12.1798 11.9517 11.9876C11.8001 11.7249 11.5813 11.5439 11.2475 11.539C11.7316 11.7417 11.9077 12.1734 12.0933 12.6105C12.2441 12.965 12.421 13.3119 12.6196 13.6419C12.7801 13.9085 13.0173 14.105 13.3664 14.1357C13.4449 14.4871 13.6864 14.7287 13.9336 14.9618C14.1105 15.1287 14.2393 15.3163 14.2789 15.5589C14.3242 15.8349 14.4878 15.9602 14.7641 15.9671C15.057 15.9745 15.3133 16.0885 15.5237 16.2909C16.2419 16.982 16.9653 17.6683 17.6672 18.3761C17.8704 18.5808 18.0232 18.8418 18.172 19.0931C18.4549 19.5713 18.7596 20.0257 19.2112 20.3659C19.2884 20.424 19.3592 20.5275 19.3761 20.6203C19.4073 20.7913 19.5062 20.8851 19.6407 20.9697C19.749 21.0382 19.8735 21.1049 19.9418 21.2056C19.997 21.2876 19.9995 21.4213 19.9883 21.5282C19.9765 21.6401 19.8924 21.7104 19.7664 21.7096C18.8521 21.7058 17.9376 21.703 17.0233 21.6986C17.0151 21.6986 17.0072 21.6853 16.9916 21.6718C16.973 21.5105 17.1023 21.4658 17.2137 21.4065C17.4307 21.2907 17.6539 21.1841 17.8624 21.0548C18.0904 20.9137 18.1104 20.8222 17.9596 20.5944C17.7712 20.3097 17.523 20.0802 17.2068 19.8491C16.987 20.1019 16.7774 20.3432 16.5369 20.6203C15.334 19.7913 14.1987 18.9054 13.049 18.0407C11.9018 17.1778 10.8976 16.157 9.92759 15.084C9.77014 15.155 9.62343 15.221 9.43837 15.3043C9.40054 14.9743 9.4854 14.6829 9.52809 14.3923C9.58074 14.0327 9.66994 13.6789 9.73487 13.3211C9.76375 13.1616 9.77167 12.9983 9.76145 12.8324C9.45473 13.7937 9.17587 14.7593 9.1705 15.8196C9.02302 15.8042 8.9103 15.8209 8.82723 15.7787C8.6363 15.6816 8.46735 15.7283 8.28817 15.7999C7.98349 15.9218 7.67677 16.0379 7.36826 16.1496C7.23637 16.1974 7.13337 16.272 7.1165 16.4138C7.09068 16.6268 6.97259 16.7249 6.7469 16.7193C6.7446 16.9762 6.64031 17.1576 6.43404 17.2221C6.3019 17.6384 6.37679 17.9901 6.59456 18.3204C6.67508 18.4425 6.69476 18.5688 6.63699 18.7196C6.58536 18.8553 6.5759 19.0095 6.56057 19.1567C6.54625 19.2963 6.54165 19.4376 6.54574 19.5779C6.55034 19.7459 6.47392 19.8397 6.30343 19.8535C6.27659 20.5132 6.61041 21.086 6.69092 21.6992C6.39852 21.7899 4.01402 21.7771 3.18434 21.6938C3.12147 21.5289 3.25744 21.4875 3.35611 21.4436C3.68788 21.2958 4.02629 21.1629 4.35883 21.017C4.54056 20.9369 4.71667 20.8437 4.89354 20.7532C5.03412 20.6811 5.09112 20.5643 5.07809 20.4058C5.06198 20.208 5.05457 20.0096 5.04102 19.7671C4.86619 19.7591 4.70772 19.7528 4.5495 19.7443C4.11805 19.7211 4.04802 19.6638 3.98795 19.2359C3.80341 17.9181 3.74922 16.5961 3.83255 15.2662C3.86092 14.8107 4.02194 14.4524 4.38336 14.1794C4.46669 14.1163 4.54235 14.0429 4.63436 13.9634C5.63299 14.4506 6.65846 14.8529 7.767 14.9988C6.61373 14.6098 5.47069 14.2039 4.44829 13.4755C4.65123 13.1225 4.93112 12.8963 5.26851 12.756C5.75466 12.554 6.25257 12.3802 6.7469 12.1982C6.92914 12.1313 7.11548 12.0755 7.35293 11.9973C6.99509 12.7084 6.55111 13.3073 6.23417 13.9729C6.2564 13.9862 6.27864 13.9997 6.30088 14.013C6.78294 13.3661 7.265 12.7191 7.75984 12.0551Z" fill="#DCDCDC"/>
</g>
<path d="M12.3322 10.4015C11.9023 10.0373 11.5008 9.69654 11.0836 9.34279C10.8705 9.42432 10.6708 9.50356 10.4042 9.46573C10.1571 9.43071 9.96538 9.39314 9.81662 9.18994C9.73994 9.227 9.68064 9.27071 9.61495 9.28528C9.36165 9.34125 9.32204 9.52043 9.33635 9.73846C9.34325 9.84376 9.34683 9.94933 9.34683 10.0549C9.34657 10.392 9.56613 10.5661 9.88998 10.4697C10.3565 10.3309 10.8183 10.1766 11.2856 10.0408C11.3643 10.0178 11.4714 10.0329 11.547 10.0689C11.7474 10.1651 11.9332 10.2913 12.1331 10.3887C12.3207 10.4802 12.3233 10.6021 12.208 10.791C11.6856 10.7614 11.1386 10.9104 10.6021 10.6998C10.5438 10.677 10.4633 10.6811 10.4014 10.7C9.72461 10.9071 9.02631 10.9791 8.32596 11.0384C7.48044 11.1103 6.7461 11.4477 6.08563 11.9652C5.98441 12.0445 5.88242 12.1232 5.78018 12.2012C5.77226 12.2073 5.7582 12.2058 5.69916 12.216C5.886 11.7603 6.16231 11.4052 6.54673 11.157C6.92706 10.9114 7.33909 10.7151 7.75188 10.4892C7.69489 10.1127 7.66932 9.71034 7.46536 9.33946C7.335 9.10278 7.30509 8.83363 7.36542 8.554C7.47405 8.05022 7.53897 7.53646 7.66191 7.03651C7.85106 6.26766 8.26845 5.64911 8.94426 5.21101C9.56358 4.8092 10.1704 4.38797 10.7529 3.99512C11.0034 4.09736 11.2181 4.18503 11.4328 4.27244C11.4867 4.29443 11.5634 4.29979 11.592 4.33992C11.8093 4.64179 12.14 4.8046 12.4166 5.03311C12.4958 5.09905 12.5651 5.18698 12.6139 5.27823C12.7297 5.4937 12.9058 5.63607 13.1077 5.76489C13.2325 5.84439 13.3523 5.95225 13.4346 6.07391C13.7099 6.48185 13.9786 6.89541 14.2268 7.32022C14.3239 7.48662 14.3857 7.68394 14.4174 7.87487C14.4535 8.09137 14.3663 8.29227 14.2122 8.45253C13.5952 9.0946 12.9758 9.73488 12.3322 10.4015ZM11.6789 8.56448C11.6973 8.58391 11.716 8.60359 11.7344 8.62302C11.8849 8.45202 12.049 8.29074 12.1827 8.10696C12.309 7.93341 12.2842 7.81379 12.1065 7.69033C11.7725 7.45799 11.3886 7.33607 11.0036 7.21543C11.3285 7.47997 11.7283 7.63308 12.0352 7.9559C11.9108 8.16856 11.7947 8.36665 11.6789 8.56448Z" fill="#DCDCDC"/>
<path d="M8.00443 4.93555C8.02462 5.35984 7.97018 5.67474 7.78001 5.98427C7.42345 6.56551 7.31763 7.23058 7.24044 7.89744C7.22843 8.00096 7.21872 8.10448 7.20159 8.26755C7.03085 8.04825 7.14331 7.82255 7.0421 7.62472C6.58406 7.55417 6.11708 7.5258 5.63732 7.59737C5.23449 7.65769 4.82195 7.65283 4.41376 7.68121C4.02831 7.70779 3.64364 7.74485 3.25793 7.76862C2.94942 7.78779 2.8753 7.73616 2.7475 7.45142C2.73319 7.41947 2.7153 7.38675 2.71044 7.35301C2.64935 6.92667 2.34007 6.79172 1.97482 6.72679C1.82632 6.70021 1.67602 6.68666 1.52522 6.66724C1.38515 7.12502 0.982836 7.24336 0.630875 7.40362C0.44173 7.48976 0.120185 7.25972 0.0619085 7.04374C0.0529624 7.01025 0.0544961 6.97396 0.0509176 6.93869C-0.0278072 6.16703 -0.120335 6.22812 0.655923 6.0993C1.19115 6.0106 1.72536 5.98453 2.26416 5.98274C2.42391 5.98197 2.59031 6.01316 2.69382 5.82427C2.72117 5.77443 2.84105 5.75577 2.9185 5.75577C3.57258 5.75654 4.22922 5.80203 4.87946 5.75577C5.22376 5.73149 5.5954 5.80357 5.90493 5.68778C6.28015 5.5472 6.64796 5.52062 7.03213 5.49659C7.40914 5.47282 7.71586 5.28342 8.00443 4.93555Z" fill="#DCDCDC"/>
<path d="M12.5148 18.2252C10.7519 19.0079 8.92411 19.0646 7.05542 18.9828C7.05925 18.9161 7.05031 18.8576 7.06769 18.808C7.15919 18.5465 7.13951 18.306 6.97056 18.0772C6.90921 17.9939 6.85247 17.8935 6.83611 17.794C6.82027 17.6982 6.8287 17.5722 6.88059 17.4965C7.01094 17.3064 7.17172 17.1372 7.32073 16.9598C7.35089 16.924 7.39537 16.8946 7.41147 16.8537C7.61978 16.3246 8.16523 16.3706 8.56959 16.1817C8.64448 16.147 8.76947 16.2247 8.87248 16.2443C9.20297 16.3077 9.41103 16.2027 9.558 15.8995C9.57819 15.8576 9.58433 15.808 9.60835 15.7689C9.69475 15.6268 9.79469 15.6125 9.92146 15.7204C9.94805 15.7431 9.97028 15.771 9.9938 15.797C10.7496 16.6336 11.5703 17.4017 12.4394 18.1189C12.4642 18.1396 12.4785 18.1731 12.5148 18.2252Z" fill="#DCDCDC"/>
<path d="M10.4948 3.37732C9.73487 4.01198 9.00922 4.61801 8.24676 5.25496C8.34644 4.90862 8.25417 4.65583 8.00777 4.51781C8.02209 4.30029 8.08292 4.10629 8.03385 3.94603C7.96867 3.73388 7.72252 3.7873 7.56661 3.7574C7.5022 3.66845 7.4659 3.5657 7.39638 3.53221C7.1827 3.42997 7.21439 3.2692 7.29312 3.12019C7.40328 2.91136 7.39229 2.69896 7.40072 2.4748C7.41069 2.20079 7.49044 1.92935 7.55102 1.59707C7.48661 1.51936 7.35829 1.39667 7.27062 1.24996C7.18909 1.11321 7.15049 0.950396 7.07202 0.744127C7.2558 0.790391 7.38513 0.854802 7.51089 0.848156C7.77697 0.833843 8.04688 0.805727 8.30478 0.74106C8.69764 0.642398 9.08717 0.588466 9.48489 0.683038C10.2249 0.859147 10.6369 1.41993 10.5804 2.17907C10.5674 2.35313 10.5385 2.53026 10.4863 2.6964C10.414 2.92593 10.3688 3.14779 10.4948 3.37732Z" fill="#DCDCDC"/>
</svg>
