<svg width="21" height="36" viewBox="0 0 21 36" fill="none" xmlns="http://www.w3.org/2000/svg">
<mask id="mask0_227_7055" style="mask-type:luminance" maskUnits="userSpaceOnUse" x="0" y="0" width="21" height="36">
<path d="M0.5 0.0390625H20.5V35.2111H0.5V0.0390625Z" fill="white"/>
</mask>
<g mask="url(#mask0_227_7055)">
<path fill-rule="evenodd" clip-rule="evenodd" d="M8.94761 5.46136C8.96687 5.38046 9.02252 5.25163 9.0666 5.27689C9.11069 5.30171 9.39916 5.59233 9.63756 5.62272C9.87597 5.65353 9.99538 5.36334 10.0258 5.27089C10.0566 5.17844 10.0395 5.10953 10.17 5.08642C10.301 5.06117 10.3699 4.99996 10.3776 4.96316C10.3836 4.92677 10.3913 4.90751 10.4277 4.91308C10.4662 4.91907 10.5163 4.97471 10.5663 4.91308C10.616 4.85187 10.6798 4.62289 10.7239 4.60962C10.7679 4.59806 10.8989 4.69608 11.0872 4.73246C11.2756 4.76884 11.3449 4.65157 11.3564 4.52273C11.3697 4.39219 11.3312 3.87302 11.4005 3.76901C11.4699 3.66329 11.6445 3.68812 11.6946 3.49808C11.7447 3.30548 11.9775 2.74992 12.0023 2.26713C12.0271 1.78433 11.8024 0.944152 11.3372 0.53626C10.8737 0.128795 9.93161 -0.0946252 9.10512 0.288443C8.2765 0.671083 8.12669 1.47488 8.06506 1.7227C8.00171 1.97095 7.89 2.2423 7.73806 2.52693C7.58826 2.81113 7.41149 2.93439 7.41149 2.93439C7.41149 2.93439 6.78488 2.57658 6.05599 3.0461C5.32923 3.5152 4.9025 3.91154 4.7527 4.70378C4.6029 5.49603 4.55282 6.26131 4.50274 6.63239C4.45266 7.00347 4.35294 7.42463 4.35294 7.59798C4.35294 7.77089 4.31442 9.08231 4.61616 10.294C4.91791 11.5057 5.19269 11.8152 5.50642 12.2115C5.81973 12.6074 6.13303 14.2882 6.13303 14.2882C6.13303 14.2882 5.90789 14.9306 5.91945 15.4382C5.93315 15.9459 5.96953 15.8093 6.05813 16.2172C6.1463 16.6247 6.13303 16.5018 6.10778 16.8481C6.08295 17.1939 5.66949 18.802 5.59459 19.2711C5.51969 19.7402 5.46961 19.7038 5.38144 20.0997C5.29285 20.496 5.25647 20.5324 5.19269 20.6942C5.12935 20.8556 4.97954 20.9039 5.07927 21.0152C5.17942 21.1269 5.24277 21.2634 5.24277 21.2634C5.24277 21.2634 4.74114 23.2789 4.66624 24.0211C4.59134 24.7633 4.56609 24.9366 4.50274 24.9366C4.4394 24.9366 3.29918 25.3942 2.83393 26.3593C2.37083 27.3249 2.48211 27.8308 2.30706 28.4998C2.13243 29.1671 1.93041 29.7115 1.75535 30.071C1.58072 30.4288 1.42878 30.4173 1.40353 30.6651C1.3787 30.9133 1.34018 30.9497 1.31536 31.0482C1.29011 31.1462 0.976804 32.3095 0.738403 32.6921C0.500002 33.0748 0.525255 33.2614 0.538523 33.421C0.552219 33.5828 0.601868 33.5999 0.619417 33.7981C0.636537 33.9963 0.619417 34.0078 0.694318 34.0382C0.76922 34.069 0.794472 34.0575 0.794472 34.0575C0.794472 34.0575 0.740543 34.2364 0.819297 34.3366C0.89805 34.4346 0.932719 34.444 0.932719 34.444C0.932719 34.444 0.873226 34.6267 0.953692 34.6944C1.03459 34.7616 1.05385 34.7616 1.05385 34.7616C1.05385 34.7616 0.9905 34.9037 1.14244 34.979C1.29225 35.0539 1.36158 34.9978 1.36158 34.9978C1.36158 34.9978 1.44205 35.1652 1.72496 35.196C2.00745 35.2268 2.20134 34.9614 2.2206 34.7132C2.23986 34.4654 2.27067 34.2617 2.35927 34.0883C2.44744 33.9154 2.64176 33.5884 2.56686 33.1056C2.49196 32.6228 2.4667 32.3018 2.56686 32.054C2.66658 31.8057 2.71666 31.8806 2.7051 31.6461C2.69355 31.4115 2.73036 31.2498 2.73036 31.2498C2.73036 31.2498 2.91868 30.9403 2.99358 30.6441C3.06848 30.3479 3.83376 29.1114 4.53527 28.4172C5.23721 27.7251 5.41397 26.9209 5.47561 26.8344C5.53895 26.748 6.62909 26.1539 6.94239 25.3997C7.25569 24.646 7.84592 23.0384 8.29747 22.048C8.74945 21.0593 9.04948 20.4404 9.04948 20.4404C9.04948 20.4404 10.1777 20.119 10.3027 19.8211C10.4277 19.5249 10.5278 18.9556 10.6798 18.7074C10.8296 18.4596 10.8544 17.7923 11.1814 17.6442C11.5084 17.4961 12.6619 17.4961 13.1635 17.5462C13.6651 17.5958 13.9403 17.7191 13.9921 17.571C14.0422 17.4229 14.1419 17.0767 14.1419 17.0767L15.0206 17.0155C15.0206 17.0155 14.1419 18.0037 13.942 18.2652C13.7422 18.525 13.6651 18.6115 13.3903 18.5999C13.1134 18.5884 12.3255 18.4382 12.1483 18.7844C11.9736 19.1307 12.0601 19.6135 12.2484 19.848C12.4367 20.0826 12.4868 20.1943 12.5369 20.3171C12.5865 20.4404 12.3618 20.8864 12.3233 21.5904C12.2848 22.2962 12.5369 22.4191 12.5369 22.5556C12.5369 22.6921 12.7 22.9267 12.8635 22.9635C13.027 22.9999 13.0633 22.6921 13.0633 22.6921C13.0633 22.6921 13.1883 22.494 13.1768 22.2962C13.1635 22.0981 13.1635 22.048 13.1905 21.95C13.2153 21.852 14.1937 20.2923 14.5708 19.8343C14.9474 19.3768 15.536 18.894 15.7127 18.7211C15.8878 18.5482 16.7528 17.9173 17.4312 17.5462C18.1079 17.1747 18.083 17.4229 18.8868 16.8785C19.6885 16.3345 19.7651 15.9882 20.0403 15.6172C20.3168 15.2461 20.5419 14.9978 20.4919 14.4055C20.4418 13.8114 20.2149 13.6385 19.5383 13.4403C18.8616 13.2421 16.4528 13.1189 16.228 13.044C16.0029 12.9691 15.4512 12.9939 15.0994 13.094C14.7476 13.1921 13.9211 13.1921 13.9211 13.1921L13.2692 13.2421C13.2692 13.2421 13.0308 12.723 12.8172 12.6481C12.6041 12.5727 12.3905 12.6596 12.2908 12.6596C12.1906 12.6596 11.8024 12.5843 11.8024 12.5843C11.8024 12.5843 11.689 12.25 11.564 12.0767C11.4391 11.9037 11.3256 11.6808 11.3256 11.6808C11.3256 11.6808 11.3757 11.3461 11.4391 11.2981C11.5024 11.248 11.9659 11.0268 12.3541 10.9266C12.7423 10.8286 12.6426 10.9882 13.1194 10.7785C13.5962 10.5692 13.871 10.5076 14.1843 10.0612C14.4976 9.61518 14.0841 8.68812 13.746 8.34229C13.4075 7.99603 13.1943 7.95965 12.9559 8.00758C12.7175 8.05766 12.4427 8.26696 12.2908 8.41505C12.1406 8.56314 12.227 8.63847 11.9886 8.63847C11.7506 8.63847 11.5255 8.63847 11.3487 8.79983C11.1737 8.96119 10.9105 9.13453 10.9105 9.13453L10.8814 8.88843C10.8814 8.88843 11.2447 8.59224 11.3081 8.57855C11.3719 8.56699 11.6967 8.57855 11.9848 8.39408C12.2732 8.2096 12.7 7.76319 12.7886 7.70156C12.8772 7.64035 13.4289 7.25557 13.7285 7.16911C14.0306 7.08266 14.0803 7.16911 14.5301 6.84768C14.9821 6.52667 15.1456 5.84614 15.0185 5.62272C14.8935 5.39972 14.2168 4.39776 13.6904 4.29974C13.1635 4.20173 12.9003 4.50947 12.6503 4.50947C12.4004 4.50947 12.0982 4.54585 11.7468 4.85573C11.395 5.16518 11.2948 5.3749 11.3697 5.7096C11.4446 6.04388 11.4198 6.10551 11.4198 6.10551C11.4198 6.10551 10.8544 6.35376 10.616 6.57461C10.3776 6.79803 10.3279 7.02102 10.2894 7.10748C10.2509 7.19394 10.1011 7.13231 10.1011 7.13231C10.1011 7.13231 10.1144 6.90931 9.7741 6.4766C9.43597 6.04388 9.12224 5.96898 9.07259 5.85769C9.02423 5.74598 8.94761 5.46136 8.94761 5.46136Z" fill="#DCDCDC"/>
</g>
</svg>
