<svg width="20" height="32" viewBox="0 0 20 32" fill="none" xmlns="http://www.w3.org/2000/svg">
<path d="M19.9501 31.3308C19.9992 31.2779 20.0129 31.2189 19.9874 31.1504C20.0038 31.0621 19.9703 30.9887 19.9166 30.9213C19.8664 30.7074 19.6662 30.6043 19.4622 30.5369C18.7121 30.3451 18.0849 29.748 17.594 29.1699C17.6404 28.5092 17.3656 27.8912 17.1944 27.2686C16.4504 25.0076 15.6565 22.7158 14.5878 20.5941C14.1315 19.9086 14.0288 19.0272 13.5089 18.3502C13.2596 18.0442 13.1458 17.7104 13.0602 17.3352C12.9407 16.9759 12.8863 16.6209 12.5677 16.3712C12.3763 16.112 12.5529 15.5431 12.4928 15.1644C12.2789 13.9466 11.2947 12.8771 10.4772 12.0014C9.85919 11.6163 10.8342 11.1813 10.8251 10.7235C10.8723 10.7071 10.8826 10.6645 10.897 10.6241C11.0036 10.524 11.1227 10.5895 11.2091 10.6352C11.6772 10.8864 12.1807 10.851 12.6823 10.8426C12.8943 10.8574 13.1055 10.8708 13.3179 10.8856C15.1758 11.1832 16.8648 10.0472 18.4697 9.24798C19.0535 9.01126 18.4944 8.18123 18.2387 7.86726C18.174 7.75689 18.0682 7.6842 17.9818 7.594C17.5951 6.85607 17.9902 6.9006 18.0884 6.21861C18.1649 6.15239 18.0884 6.06409 18.1211 5.9914C18.2022 5.52444 17.511 4.92351 17.0395 4.98745C16.8511 4.91438 16.6273 4.91628 16.488 5.102C16.3084 5.29686 16.5299 5.59789 16.3168 5.77562C16.1691 5.89474 16.1592 6.04506 16.2182 6.21062C16.1219 6.58091 15.3444 6.59119 15.3307 7.15102C15.2006 7.29183 15.2862 7.55937 14.9985 7.49315C14.8801 7.42389 14.7606 7.43759 14.6407 7.49049C14.1315 7.73329 13.3205 6.76397 12.9361 7.23817C12.8851 7.40562 12.817 7.68686 12.6187 7.46499C11.81 6.84579 10.9552 6.17979 9.89268 6.09758C9.56881 5.98836 9.33933 5.65536 8.95038 5.71891C8.85105 5.51074 8.57095 5.50884 8.48874 5.28125C8.91575 4.81885 9.18824 4.2027 9.08244 3.57171C9.22173 2.71428 9.50221 1.62507 8.7148 0.981519C8.09295 0.388964 8.2368 0.550708 7.43265 0.320461C7.08328 0.210474 6.38493 0.0647145 6.26276 0.550708C6.22014 0.650038 6.20187 0.759263 6.07704 0.7703C6.04355 0.772964 6.00892 0.774867 5.97505 0.777531C4.90639 1.5501 5.07651 3.01227 5.44338 4.09804C5.2942 4.61867 5.26489 5.12293 5.32693 5.66373C5.35166 6.18778 4.73894 5.9092 4.47558 6.19349C4.25903 6.36703 3.91233 6.14249 3.73536 6.4363C3.02635 6.84579 2.93882 7.75879 2.91903 8.51804C2.857 9.24798 2.80676 9.97716 2.94605 10.7033C3.04196 10.9275 3.1664 11.1322 3.35213 11.2951C3.78294 11.8294 4.44285 12.4166 5.19144 12.1278C5.51379 12.2579 5.60284 12.554 5.62187 12.8897C5.34329 12.7942 4.83979 13.547 4.769 13.8347C4.39186 14.1087 4.16085 14.713 4.19243 15.1716C4.29291 15.4612 4.2891 15.7124 3.98045 15.8825C3.55611 16.1311 3.66267 16.6601 3.4252 17.0132C2.44179 18.2965 1.43669 19.6746 0.734913 21.1109C0.665649 22.8623 0.4746 24.627 0.430834 26.3891C0.492487 27.0482 -0.0810389 28.9024 0.552618 29.2099C0.639009 29.2308 0.668313 29.2757 0.623786 29.3575C0.502763 29.3857 0.379837 29.4093 0.292305 29.5094C0.0784219 29.627 -0.156393 30.0102 0.139314 30.1693C0.490965 30.2804 0.904269 30.3706 1.22624 30.113C1.35487 30.0529 1.51243 30.0875 1.62964 29.9901C2.28804 29.8873 2.89429 29.6141 3.46972 29.3191C3.51806 29.2993 3.53518 29.2582 3.54432 29.211C3.55611 29.2137 3.56715 29.2156 3.57895 29.2183C3.54165 28.3315 3.32054 28.7448 3.60901 27.7527C3.72737 27.2522 4.02688 26.856 4.2126 26.41C4.27616 25.7448 4.73894 24.9886 4.47216 24.3496C4.41659 23.2109 4.71687 22.0867 4.74084 20.9769C4.86339 20.7303 5.20134 20.6211 5.40533 20.4338C5.81673 20.1842 6.17104 19.8694 6.48426 19.5052C6.65171 19.3678 6.83476 19.2586 7.04751 19.2057C7.49088 19.1894 7.93272 19.1848 8.3133 19.4489C8.40425 19.8112 8.15574 20.7661 8.63831 20.8197C9.47405 20.8525 9.58594 20.6858 9.36939 19.882C11.2076 20.4137 10.4826 20.8125 11.23 21.9108C11.2567 22.1476 11.3666 22.3569 11.3842 22.5989C11.6974 23.7315 11.9322 24.9056 12.1617 26.0743C12.4463 27.253 12.6142 28.4944 12.8707 29.6841C12.9327 30.3634 13.7449 29.8481 14.1734 29.8763C14.8946 29.8272 15.5884 29.6651 16.2959 29.5433C16.1958 29.952 15.9442 30.6119 16.5626 30.6781C17.3462 30.8182 18.0339 31.2406 18.8012 31.4138V31.4127C19.0006 31.5531 19.3667 31.6303 19.5871 31.4735C19.7043 31.4165 19.9018 31.4812 19.9501 31.3308Z" fill="#DCDCDC"/>
</svg>
