<svg width="94" height="82" viewBox="0 0 94 82" fill="none" xmlns="http://www.w3.org/2000/svg">
<mask id="mask0_190_3296" style="mask-type:luminance" maskUnits="userSpaceOnUse" x="45" y="0" width="3" height="9">
<path d="M45.5104 0H47.823V8.94422H45.5104V0Z" fill="white"/>
</mask>
<g mask="url(#mask0_190_3296)">
<path d="M46.6159 8.78818C46.0434 8.78818 45.5804 8.3207 45.5804 7.74821V1.06912C45.5804 0.496624 46.0434 0.0302734 46.6159 0.0302734C47.1884 0.0302734 47.6514 0.496624 47.6514 1.06912V7.74821C47.6514 8.3207 47.1884 8.78818 46.6159 8.78818Z" fill="#EEC892"/>
</g>
<path d="M37.4684 10.3988C37.045 10.3988 36.6475 10.1368 36.4951 9.71679L34.038 2.96204C33.8437 2.42568 34.1215 1.83174 34.6568 1.63413C35.1965 1.43765 35.7916 1.71769 35.9847 2.25405L38.4418 9.00992C38.6382 9.54628 38.3616 10.1402 37.8252 10.3378C37.7089 10.3774 37.5881 10.3988 37.4684 10.3988Z" fill="#EEC892"/>
<path d="M28.9081 14.5252C28.6122 14.5252 28.3175 14.3976 28.1131 14.1526L23.6179 8.79465C23.2498 8.35653 23.3074 7.70047 23.7455 7.33236C24.1825 6.96425 24.8385 7.02184 25.2066 7.45996L29.703 12.8213C30.0666 13.2594 30.0124 13.9121 29.5709 14.2802C29.3778 14.4451 29.1407 14.5252 28.9081 14.5252Z" fill="#EEC892"/>
<path d="M23.4395 20.2259C23.26 20.2259 23.0815 20.1819 22.9212 20.087L16.5594 16.4138C16.0637 16.1259 15.8921 15.4946 16.18 14.9989C16.4646 14.5021 17.0992 14.3316 17.5949 14.6195L23.9567 18.2927C24.4524 18.5773 24.624 19.2119 24.3361 19.7076C24.143 20.0396 23.7963 20.2259 23.4395 20.2259Z" fill="#EEC892"/>
<path d="M70.813 21.6415C70.4517 21.6415 70.1061 21.4551 69.913 21.1232C69.6285 20.6275 69.7956 19.9929 70.2913 19.7049L75.7385 16.5602C76.2342 16.2756 76.8688 16.4439 77.1533 16.9396C77.4413 17.4364 77.2696 18.071 76.7739 18.3589L71.3313 21.5026C71.1664 21.5974 70.988 21.6415 70.813 21.6415Z" fill="#EEC892"/>
<path d="M64.8735 15.1153C64.6409 15.1153 64.4038 15.0351 64.2107 14.8714C63.7726 14.5021 63.715 13.8494 64.0831 13.4125L68.4395 8.21824C68.8076 7.78012 69.4602 7.7214 69.8984 8.09064C70.3354 8.45536 70.3941 9.11142 70.026 9.54954L65.6685 14.7438C65.4652 14.9877 65.1694 15.1153 64.8735 15.1153Z" fill="#EEC892"/>
<path d="M55.7599 10.9205C55.6425 10.9205 55.5228 10.8991 55.4054 10.8584C54.8656 10.6619 54.589 10.0669 54.7854 9.52711L57.229 2.8164C57.4255 2.27665 58.016 1.99888 58.5558 2.19648C59.0955 2.38957 59.3722 2.98804 59.1757 3.52327L56.7333 10.2385C56.5797 10.6585 56.1822 10.9205 55.7599 10.9205Z" fill="#EEC892"/>
<path d="M66.3358 24.3659C66.0773 24.3659 65.8187 24.2677 65.6177 24.0746C60.4991 19.1536 53.7692 16.4436 46.6667 16.4436C39.5641 16.4436 32.8342 19.1536 27.7157 24.0746C27.3035 24.4721 26.6475 24.4608 26.25 24.0452C25.8559 23.6331 25.8672 22.9759 26.2794 22.5784C31.7841 17.286 39.0255 14.3682 46.6667 14.3682C54.3078 14.3682 61.5492 17.286 67.054 22.5784C67.4661 22.9759 67.4774 23.6331 67.0833 24.0452C66.879 24.2564 66.6057 24.3659 66.3358 24.3659Z" fill="#EEC892"/>
<mask id="mask1_190_3296" style="mask-type:luminance" maskUnits="userSpaceOnUse" x="24" y="64" width="45" height="18">
<path d="M24.9865 64.1562H68.3469V81.5174H24.9865V64.1562Z" fill="white"/>
</mask>
<g mask="url(#mask1_190_3296)">
<path d="M46.5933 81.5818C30.9643 81.5818 25.0248 77.047 25.0248 77.047C26.1619 73.6041 28.0985 68.7385 30.5262 66.5535C36.119 61.5197 38.872 67.0097 46.5933 67.0097C54.3191 67.0097 57.072 61.5197 62.6649 66.5535C65.1987 68.8334 67.1963 74.0276 68.3085 77.4851C68.3085 77.4851 64.2943 81.5818 46.5933 81.5818Z" fill="#EEC892"/>
</g>
<path d="M59.8137 44.5361C59.8137 53.7242 53.8968 61.1689 46.5933 61.1689C39.2943 61.1689 33.3774 53.7242 33.3774 44.5361C33.3774 35.3514 39.2943 27.9033 46.5933 27.9033C53.8968 27.9033 59.8137 35.3514 59.8137 44.5361Z" fill="#EEC892"/>
<path d="M26.8846 39.2792C26.8846 46.3784 22.3092 52.1338 16.669 52.1338C11.0287 52.1338 6.45667 46.3784 6.45667 39.2792C6.45667 32.1812 11.0287 26.4258 16.669 26.4258C22.3092 26.4258 26.8846 32.1812 26.8846 39.2792Z" fill="#EEC892"/>
<path d="M86.7671 39.2792C86.7671 46.3784 82.1951 52.1338 76.5548 52.1338C70.9112 52.1338 66.3392 46.3784 66.3392 39.2792C66.3392 32.1812 70.9112 26.4258 76.5548 26.4258C82.1951 26.4258 86.7671 32.1812 86.7671 39.2792Z" fill="#EEC892"/>
<path d="M88.9735 56.2919C84.6488 52.4041 82.5203 56.6465 76.5548 56.6465C70.5871 56.6465 68.4575 52.4041 64.1373 56.2919C63.095 57.2291 61.1371 59.2244 60.0214 61.0378C61.7637 61.4421 63.4372 62.3691 65.0892 63.854C66.0659 64.7325 67.0031 65.9249 67.9076 67.4177C81.7976 70.8052 93.3333 64.7404 93.3333 64.7404C92.4729 62.0665 90.9304 58.0545 88.9735 56.2919Z" fill="#EEC892"/>
<path d="M28.1019 63.854C29.7505 62.3725 31.416 61.4466 33.1515 61.0412C31.9919 59.2063 30.1186 57.2223 29.0865 56.2919C24.7663 52.4041 22.6366 56.6465 16.6689 56.6465C10.7001 56.6465 8.57498 52.4041 4.25136 56.2919C2.37353 57.9811 0.8785 61.7379 0 64.4005C0 64.4005 11.2986 70.1051 25.3636 67.2856C26.2421 65.856 27.1579 64.7065 28.1019 63.854Z" fill="#EEC892"/>
</svg>
