<svg width="120" height="83" viewBox="0 0 120 83" fill="none" xmlns="http://www.w3.org/2000/svg">
<mask id="mask0_190_3325" style="mask-type:luminance" maskUnits="userSpaceOnUse" x="62" y="26" width="58" height="57">
<path d="M62.2037 26.2178H119.5V82.6375H62.2037V26.2178Z" fill="white"/>
</mask>
<g mask="url(#mask0_190_3325)">
<path d="M119.347 79.1404C118.19 67.4949 117.104 55.8423 115.83 44.2083C115.202 38.4967 114.226 32.8253 113.374 27.1396C113.334 26.8713 112.971 26.4366 112.76 26.4395C111.715 26.4567 110.674 26.5901 109.669 26.6805C111.067 41.0347 112.45 55.2469 113.843 69.558C113.37 69.5351 113.176 69.5322 112.979 69.5164C109.367 69.2567 105.757 68.8507 102.143 68.7661C93.6524 68.5681 85.258 69.3041 77.1663 72.1075C71.7804 73.9755 66.9354 76.6957 63.3615 81.3068C63.066 81.6856 62.802 82.093 62.5237 82.489C66.0817 79.3513 70.2338 77.5321 74.7617 76.6985C78.2079 76.063 81.7329 75.6397 85.2365 75.535C94.8332 75.2509 104.249 76.7588 113.565 78.9467C115.483 79.3972 117.388 79.9266 119.352 80.4316C119.352 79.9467 119.387 79.5393 119.347 79.1404Z" fill="#EEC892"/>
</g>
<path d="M63.0659 78.3525C63.2596 78.2104 63.4504 78.0627 63.6283 77.8991C66.1706 75.5778 68.9898 73.6581 72.0529 72.0957C81.7658 67.1446 92.2176 65.0901 102.969 64.2924C105.345 64.1188 107.743 64.268 110.232 64.268C110.232 63.6697 110.253 63.4 110.226 63.1346C109.097 51.4489 108.035 39.7575 106.786 28.0819C106.316 23.6688 105.421 19.2944 104.688 14.9099C104.634 14.58 104.304 14.029 104.111 14.0362C102.249 14.0907 100.394 14.2442 98.5361 14.3705L102.028 54.9611C100.948 54.9611 100.065 54.9252 99.1874 54.9697C97.4471 55.0601 95.6853 55.0343 93.9794 55.3298C80.2565 57.7114 70.1046 65.3283 62.7201 76.9192C62.6714 76.9953 62.6298 77.077 62.5968 77.1645L62.3686 78.5906L62.2811 79.1086L63.0659 78.3553V78.3525Z" fill="#EEC892"/>
<mask id="mask1_190_3325" style="mask-type:luminance" maskUnits="userSpaceOnUse" x="0" y="12" width="60" height="71">
<path d="M0.5 12.6299H59.6327V82.6391H0.5V12.6299Z" fill="white"/>
</mask>
<g mask="url(#mask1_190_3325)">
<path d="M51.3244 54.4527C51.1795 55.1514 50.5008 55.5991 49.8021 55.457L19.8298 49.3237C19.1311 49.1816 18.6849 48.4987 18.8255 47.8029C18.9675 47.1056 19.6504 46.6551 20.3463 46.7972L50.3201 52.9348C51.0159 53.0769 51.4664 53.7569 51.3244 54.4527ZM51.3086 62.3321C51.1723 62.9878 50.5338 63.4139 49.8753 63.279L19.8197 57.1284C19.1641 56.9922 18.7394 56.348 18.8728 55.6923C18.9905 55.117 19.4998 54.7181 20.0651 54.7181C20.144 54.7181 20.2229 54.7253 20.3075 54.7454L50.3617 60.8974C51.0188 61.0323 51.442 61.6736 51.3086 62.3321ZM19.8958 39.3152C20.0163 38.7241 20.5887 38.3453 21.1784 38.4673L50.4348 44.4543C51.0245 44.5748 51.4033 45.1487 51.2813 45.7412C51.1608 46.328 50.5884 46.7082 49.9958 46.5877L20.7408 40.5978C20.1555 40.4787 19.7724 39.9048 19.8958 39.3152ZM59.3372 40.8302C58.1335 41.0454 56.8953 41.1602 55.6299 41.1602C50.8036 41.1602 46.3617 39.4974 42.8539 36.704L21.2932 32.2909C20.8125 32.1919 20.5012 31.7227 20.6002 31.2421C20.7006 30.7615 21.1669 30.4502 21.6475 30.5477L40.379 34.3827C38.6 32.4128 37.1983 30.1001 36.2844 27.5521L23.0435 24.8433C22.4768 24.7286 22.111 24.1705 22.2257 23.6023C22.3434 23.0327 22.8972 22.6669 23.4667 22.7802L35.6072 25.2666C35.2586 23.7644 35.0721 22.1963 35.0721 20.588C35.0721 18.2207 35.4738 15.9482 36.2098 13.8334C29.7063 12.5881 23.0765 12.4934 16.3678 13.1405C15.7021 13.2036 15.5472 13.5121 15.4597 14.1046C13.1684 29.4746 10.86 44.8417 8.55445 60.2102C8.32489 61.7468 8.10682 63.2876 7.87727 64.8873C8.3995 64.8873 8.76965 64.9017 9.14124 64.8859C18.0708 64.4913 26.9186 65.1226 35.6345 67.1599C41.369 68.5013 46.894 70.3908 51.6515 74.0049C53.0819 75.0881 54.3415 76.3936 55.66 77.6361C55.66 77.6361 55.924 77.9101 56.0661 78.0866L56.7504 79.111L55.8394 78.309C55.7117 78.1942 55.5854 78.0823 55.4549 77.9675C50.6615 73.7997 44.9055 71.7782 38.7722 70.6477C29.1553 68.8758 19.5027 69.1426 9.84998 70.3335C8.6477 70.4841 7.45259 70.672 6.12406 70.8586C8.21873 55.5618 10.2976 40.4342 12.3851 25.2063C11.3622 25.2063 10.5056 25.2824 9.66491 25.1877C8.62044 25.0614 8.27324 25.4732 8.12834 26.4789C5.91603 41.7556 3.65207 57.0251 1.44693 72.3033C1.07391 74.87 0.91322 77.4639 0.634888 80.2659C20.6217 73.2803 40.082 74.6318 59.3343 82.626V81.9302C59.3372 68.2302 59.3487 54.5316 59.3372 40.8302Z" fill="#EEC892"/>
</g>
<mask id="mask2_190_3325" style="mask-type:luminance" maskUnits="userSpaceOnUse" x="62" y="0" width="36" height="77">
<path d="M62.2037 0H97.0957V76.5371H62.2037V0Z" fill="white"/>
</mask>
<g mask="url(#mask2_190_3325)">
<path d="M87.7099 35.2905L66.0975 49.857C65.5193 50.2458 64.7331 50.0923 64.3457 49.5127L64.3156 49.4668C63.9254 48.89 64.0818 48.1067 64.6571 47.7136L86.2694 33.1513C86.8505 32.764 87.6338 32.9175 88.0212 33.4928L88.0513 33.5373C88.4416 34.1155 88.2881 34.9017 87.7099 35.2905ZM87.7099 43.8571L66.0975 58.4222C65.5193 58.8124 64.7331 58.6589 64.3457 58.0807L64.3156 58.0362C63.9254 57.4581 64.0818 56.6747 64.6571 56.283L86.2694 41.7194C86.8505 41.3291 87.6338 41.4812 88.0212 42.0637L88.0513 42.1039C88.4416 42.6835 88.2881 43.4697 87.7099 43.8571ZM91.9882 0.0154397C91.6496 0.0154397 91.4473 0.00539689 91.2493 0.0183091C86.1848 0.343987 81.545 1.93077 77.3298 4.75426C75.5508 5.9508 73.9138 7.26643 72.4045 8.69539C74.0314 10.9895 75.1993 13.6308 75.7774 16.4901L86.1145 9.52321C86.6927 9.13297 87.4789 9.28792 87.8663 9.86754L87.8964 9.91058C88.2838 10.4873 88.1302 11.2736 87.5521 11.6609L76.1447 19.3495C76.1734 19.7584 76.1835 20.1744 76.1835 20.5891C76.1835 21.8315 76.0744 23.0467 75.865 24.2289L84.9825 18.087C85.5463 17.7053 86.311 17.8545 86.6898 18.4212L86.7558 18.5159C87.1317 19.0783 86.9839 19.843 86.4201 20.2261L74.7846 28.0667C73.535 31.2676 71.5106 34.0753 68.9397 36.2618L86.2694 24.5847C86.8505 24.1945 87.6338 24.3466 88.0212 24.9262L88.0513 24.9721C88.4416 25.5517 88.2881 26.3351 87.7099 26.7224L66.0975 41.2875C65.5193 41.6778 64.7331 41.5228 64.3457 40.9461L64.3156 40.903C63.9254 40.3205 64.0818 39.5372 64.6571 39.1484L65.086 38.8629C64.2209 39.3134 63.3171 39.7007 62.3845 40.0264C62.3759 51.6059 62.3788 63.1825 62.3788 74.762V75.597L62.3486 76.422L62.6241 75.9026C66.2252 68.9314 70.6584 63.1768 76.2566 59.0879C81.8577 54.9947 88.6266 52.5715 96.902 52.263C95.4687 34.8342 94.0914 17.4126 91.9882 0.0154397Z" fill="#EEC892"/>
</g>
<path d="M51.5754 18.451C51.706 18.0335 51.8323 17.6246 51.9628 17.2171C51.9743 17.187 52.036 17.1598 52.0776 17.1569C52.7103 17.1268 53.3401 17.0995 53.9728 17.0722C55.3788 17.012 56.7805 16.9546 58.1837 16.9001C58.2755 16.8943 58.3716 16.8972 58.4807 16.8972C58.4692 16.9546 58.4591 17.0062 58.4448 17.0565C57.495 20.6203 56.5438 24.1812 55.594 27.745C55.518 28.0377 55.4664 28.3318 55.4032 28.6273C55.4004 28.6331 55.4004 28.6359 55.4004 28.6417C55.3889 28.8483 55.386 29.0592 55.5754 29.1926C55.7633 29.326 55.9599 29.25 56.1335 29.1539C56.5539 28.9229 56.8652 28.5699 57.1708 28.2127C57.782 27.4968 58.2669 26.6991 58.7102 25.8713C58.7346 25.8254 58.759 25.7794 58.792 25.7221C59.1492 25.9258 59.4921 26.1252 59.8451 26.3304C59.4649 27.0377 59.0531 27.7091 58.5811 28.3461C58.0244 29.0993 57.4061 29.788 56.6385 30.3318C55.7963 30.93 54.871 31.26 53.8236 31.217C52.7619 31.1754 51.9269 30.4437 51.7634 29.392C51.6429 28.6302 51.7447 27.8842 51.9413 27.1467C52.5955 24.7005 53.2512 22.2529 53.8997 19.8068C53.9413 19.6475 53.9786 19.4754 53.9714 19.3118C53.9542 18.9316 53.7218 18.6619 53.3243 18.5629C53.0919 18.5055 52.8466 18.4811 52.607 18.4711C52.2813 18.4539 51.9542 18.4653 51.6271 18.4653C51.6185 18.4653 51.6084 18.4596 51.5754 18.451Z" fill="#EEC892"/>
<path d="M59.604 12.332C59.6011 13.6677 58.5451 14.7193 57.2094 14.7193C55.878 14.7164 54.8221 13.6519 54.825 12.3162C54.825 10.9805 55.8881 9.93171 57.2396 9.93458C58.5624 9.93745 59.604 10.9977 59.604 12.332Z" fill="#EEC892"/>
<path d="M68.9397 36.2598C67.7618 37.2655 66.4691 38.1392 65.0861 38.8609L68.9397 36.2598Z" fill="#EEC892"/>
<path d="M55.7117 36.3992C46.9815 36.3992 39.907 29.3146 39.907 20.5773C39.907 11.8414 46.9815 4.75681 55.7117 4.75681C64.439 4.75681 71.5135 11.8414 71.5135 20.5773C71.5135 29.3146 64.439 36.3992 55.7117 36.3992ZM55.7117 1.12988C44.9787 1.12988 36.2815 9.83709 36.2815 20.5773C36.2815 31.3189 44.9787 40.0275 55.7117 40.0275C66.4418 40.0275 75.139 31.3189 75.139 20.5773C75.139 9.83709 66.4418 1.12988 55.7117 1.12988Z" fill="#EEC892"/>
</svg>
