<svg width="98" height="97" viewBox="0 0 98 97" fill="none" xmlns="http://www.w3.org/2000/svg">
<path d="M51.7965 56.0766C52.8396 56.4282 53.9577 56.3532 54.9445 55.8656C55.9313 55.3781 56.6685 54.5342 57.0213 53.4923L61.5523 40.0915C61.9051 39.0496 61.8301 37.9315 61.3425 36.9446C60.8538 35.9578 60.0111 35.2206 58.968 34.8678C56.815 34.14 54.4722 35.2991 53.7432 37.4521L49.2122 50.8518C48.4844 53.0047 49.6435 55.3476 51.7965 56.0766Z" fill="#EEC892"/>
<path d="M35.598 30.034L33.0641 37.5267C35.3214 37.8185 38.0252 38.4092 41.1674 39.2965L43.4071 32.6746C43.7599 31.6315 43.6849 30.5134 43.1973 29.5265C42.7086 28.5397 41.8659 27.8025 40.8228 27.4497C39.7797 27.097 38.6628 27.172 37.6748 27.6595C36.6891 28.1471 35.9508 28.9909 35.598 30.034Z" fill="#EEC892"/>
<path d="M45.7829 46.0615C45.191 48.7677 42.7544 50.6089 39.9896 50.4425H39.9779C40.4022 51.6016 41.3351 52.5381 42.5294 52.9424C43.5725 53.294 44.6906 53.2202 45.6774 52.7315C46.6642 52.2439 47.4014 51.4012 47.7542 50.3581L53.1771 34.3215C53.5299 33.2784 53.4549 32.1614 52.9673 31.1746C52.4786 30.1878 51.6359 29.4494 50.5928 29.0966C49.5497 28.745 48.4316 28.8188 47.4448 29.3076C46.4591 29.7951 45.7208 30.6378 45.368 31.6809L42.6302 39.7784C44.9918 40.8472 46.3525 43.462 45.7829 46.0615Z" fill="#EEC892"/>
<path d="M63.9843 41.4779C62.9974 41.9666 62.2591 42.8093 61.9075 43.8524L58.4805 53.9856C57.7527 56.1398 58.9118 58.4826 61.0648 59.2105C62.1079 59.5632 63.2248 59.4894 64.2116 59.0007C65.1985 58.5131 65.9369 57.6693 66.2885 56.6262L69.7131 46.4988C69.7143 46.4976 69.7143 46.4965 69.7154 46.4953V46.4929C70.0682 45.4498 69.9932 44.3317 69.5056 43.3449C69.0181 42.3581 68.1742 41.6209 67.1311 41.2681C66.088 40.9153 64.9711 40.9903 63.9843 41.4779Z" fill="#EEC892"/>
<path d="M67.7476 57.1169C67.2624 58.5491 66.2498 59.7082 64.8938 60.3786C64.1015 60.7701 63.2483 60.9681 62.3892 60.9681C61.7786 60.9681 61.1656 60.8674 60.5702 60.6669C58.5977 59.9989 57.2335 58.3428 56.8397 56.436C56.4764 56.7524 56.0709 57.0255 55.6267 57.2447C54.8344 57.6361 53.9811 57.8342 53.1221 57.8342C52.5114 57.8342 51.8985 57.7346 51.3031 57.533C49.3306 56.8661 47.9652 55.2089 47.5726 53.302C47.2093 53.6184 46.8026 53.8915 46.3595 54.1107C45.5673 54.5021 44.7129 54.7002 43.8549 54.7002C43.2443 54.7002 42.6314 54.6006 42.036 54.399C40.1854 53.7732 38.793 52.2179 38.3441 50.3415L32.8087 50.0075C37.8179 52.6726 41.6164 56.9059 44.1315 62.643C44.3027 63.0321 44.1245 63.4868 43.7354 63.6567C43.3463 63.8279 42.8916 63.6509 42.7216 63.2618C39.6884 56.3434 34.9207 51.9085 28.1441 49.7016C27.7749 49.5809 27.5534 49.2058 27.6261 48.8249C27.6976 48.4452 28.0398 48.1791 28.4289 48.2002L40.0822 48.9046C42.0829 49.0242 43.8503 47.6904 44.2792 45.7308C44.7328 43.6587 43.494 41.5725 41.4594 40.9806C33.9104 38.7854 28.5555 38.2557 26.7682 39.5262C22.904 42.2745 19.6997 52.5367 21.4941 56.4184C23.4314 60.6119 37.8191 72.1574 37.9644 72.2734C38.2973 72.5394 38.35 73.0235 38.0851 73.3563C37.9328 73.5462 37.7089 73.6447 37.4839 73.6447C37.3151 73.6447 37.1452 73.5896 37.0034 73.4759C36.8779 73.3763 36.1747 72.8125 35.1199 71.9405V95.4582H58.886V76.4821C58.886 76.25 58.9915 76.0309 59.1708 75.8844C59.2142 75.8504 63.4944 72.325 65.6532 67.2232C66.7667 64.5897 67.7828 59.3695 68.5153 54.8455L67.7476 57.1169Z" fill="#EEC892"/>
<path d="M49.3329 27.7509C49.7584 27.7509 50.1029 27.4064 50.1029 26.9809V0.770013C50.1029 0.344572 49.7584 0 49.3329 0C48.9087 0 48.5641 0.344572 48.5641 0.770013V26.9809C48.5641 27.4064 48.9087 27.7509 49.3329 27.7509Z" fill="#EEC892"/>
<path d="M35.6871 25.1835C35.7692 25.541 36.0856 25.7824 36.4372 25.7824C36.4935 25.7824 36.5509 25.7765 36.6095 25.7625C37.0232 25.6687 37.2834 25.2562 37.1885 24.8413L31.6554 0.598158C31.5616 0.184437 31.1491 -0.0745782 30.7342 0.0191829C30.3193 0.114116 30.0603 0.526665 30.1552 0.941558L35.6871 25.1835Z" fill="#EEC892"/>
<path d="M24.43 37.3969C24.5776 37.6254 24.8249 37.7485 25.0769 37.7485C25.2211 37.7485 25.3652 37.7086 25.4953 37.6242C25.8516 37.3934 25.9536 36.9164 25.7227 36.5601L2.2496 0.350681C2.01754 -0.00561142 1.5417 -0.107577 1.18424 0.124482C0.827944 0.355369 0.725979 0.832379 0.956865 1.18867L24.43 37.3969Z" fill="#EEC892"/>
<path d="M1.29556 38.7896L19.7501 46.8355C19.8497 46.8789 19.954 46.9 20.0572 46.9C20.3537 46.9 20.6373 46.7265 20.7627 46.437C20.9327 46.0479 20.7545 45.5932 20.3654 45.4232L1.91086 37.3773C1.52058 37.2086 1.06701 37.3855 0.898243 37.7758C0.728301 38.1661 0.906447 38.6197 1.29556 38.7896Z" fill="#EEC892"/>
<path d="M18.9848 56.5883L1.33778 63.0696C0.939298 63.2161 0.734196 63.6591 0.880698 64.0576C0.995555 64.3693 1.28973 64.5627 1.60383 64.5627C1.69173 64.5627 1.7808 64.5475 1.86871 64.5147L19.5146 58.0346C19.9142 57.8869 20.1193 57.4451 19.9728 57.0454C19.8263 56.6469 19.3833 56.4418 18.9848 56.5883Z" fill="#EEC892"/>
<path d="M71.0011 56.4558C70.5897 56.3527 70.1713 56.6035 70.067 57.016C69.9639 57.4274 70.2147 57.8458 70.6272 57.9501L96.8756 64.538C96.9389 64.5532 97.0022 64.5614 97.0643 64.5614C97.4089 64.5614 97.7218 64.3282 97.8097 63.9789C97.9141 63.5664 97.6632 63.148 97.2507 63.0437L71.0011 56.4558Z" fill="#EEC892"/>
<path d="M29.5108 68.8506L1.07535 95.6698C0.765943 95.9616 0.751878 96.4492 1.04371 96.7586C1.1949 96.9192 1.39883 97 1.60393 97C1.79263 97 1.98367 96.9309 2.13134 96.7902L30.5667 69.971C30.8762 69.6792 30.8902 69.1917 30.5996 68.8822C30.3077 68.5728 29.8202 68.5588 29.5108 68.8506Z" fill="#EEC892"/>
<path d="M60.1741 34.0146C60.2327 34.0275 60.2901 34.0345 60.3464 34.0345C60.698 34.0345 61.0144 33.7919 61.0965 33.4356L68.5118 0.941555C68.6056 0.526662 68.3465 0.114113 67.9328 0.0191798C67.5168 -0.0745813 67.1054 0.184434 67.0104 0.599327L59.5951 33.0922C59.5002 33.5071 59.7604 33.9197 60.1741 34.0146Z" fill="#EEC892"/>
<path d="M70.3941 41.6927C70.5241 41.777 70.6695 41.8181 70.8136 41.8181C71.0644 41.8181 71.3117 41.695 71.4594 41.4688L97.7078 1.19019C97.9411 0.833903 97.8403 0.358065 97.484 0.124834C97.1277 -0.107225 96.6507 -0.00643138 96.4186 0.349861L70.169 40.6273C69.937 40.9836 70.0378 41.4606 70.3941 41.6927Z" fill="#EEC892"/>
<path d="M97.7687 37.7758C97.5999 37.3855 97.1452 37.2086 96.7561 37.3773L72.2481 48.0638C71.859 48.2337 71.6796 48.6873 71.8496 49.0764C71.9762 49.3659 72.2586 49.5393 72.5563 49.5393C72.6583 49.5393 72.7626 49.5182 72.8634 49.4749L97.3714 38.7896C97.7605 38.6197 97.9386 38.1661 97.7687 37.7758Z" fill="#EEC892"/>
<path d="M68.2868 68.2712C67.9762 67.9806 67.4887 67.997 67.1992 68.3075C66.9085 68.6181 66.9249 69.1057 67.2355 69.3952L96.5382 96.7922C96.6859 96.9305 96.8746 96.9996 97.0633 96.9996C97.2696 96.9996 97.4747 96.9176 97.6258 96.7558C97.9165 96.4453 97.9001 95.9577 97.5895 95.667L68.2868 68.2712Z" fill="#EEC892"/>
</svg>
