<svg width="85" height="85" viewBox="0 0 85 85" fill="none" xmlns="http://www.w3.org/2000/svg">
<mask id="mask0_190_3319" style="mask-type:luminance" maskUnits="userSpaceOnUse" x="0" y="0" width="85" height="85">
<path d="M0.0491943 0H84.6177V84.3727H0.0491943V0Z" fill="white"/>
</mask>
<g mask="url(#mask0_190_3319)">
<path d="M72.6172 24.5467L84.6055 12.5574L73.3105 11.3156L72.0697 0.0185547L60.0824 12.0079L60.9185 19.6211L58.9721 21.5665C52.7251 16.1851 44.6418 12.8847 35.7684 12.8847C16.068 12.8847 0.0421143 28.9156 0.0421143 48.6191C0.0421143 68.3236 16.068 84.3546 35.7684 84.3546C55.4688 84.3546 71.4947 68.3236 71.4947 48.6191C71.4947 41.5738 69.4188 35.0168 65.8849 29.4754L59.5767 35.7856C61.6444 39.607 62.821 43.978 62.821 48.6191C62.821 63.5397 50.6859 75.6779 35.7684 75.6779C20.8519 75.6779 8.71573 63.5397 8.71573 48.6191C8.71573 33.6995 20.8519 21.5604 35.7684 21.5604C42.2499 21.5604 48.1737 23.887 52.8332 27.7064L48.3776 32.163C44.8794 29.4744 40.5115 27.8665 35.7684 27.8665C24.3276 27.8665 15.0178 37.1753 15.0178 48.6191C15.0178 60.063 24.3276 69.3728 35.7684 69.3728C47.2091 69.3728 56.5159 60.063 56.5159 48.6191C56.5159 45.7398 55.9246 42.9971 54.8611 40.5022L47.7414 47.623C47.7689 47.9574 47.8423 48.2776 47.8423 48.6191C47.8423 55.2791 42.4263 60.6971 35.7684 60.6971C29.1105 60.6971 23.6914 55.2791 23.6914 48.6191C23.6914 41.9592 29.1105 36.5421 35.7684 36.5421C38.1144 36.5421 40.2892 37.2365 42.1377 38.4039L37.623 42.9196C37.0357 42.728 36.4199 42.5975 35.7684 42.5975C32.4435 42.5975 29.7477 45.2943 29.7477 48.6191C29.7477 51.945 32.4435 54.6408 35.7684 54.6408C39.0933 54.6408 41.789 51.945 41.789 48.6191C41.789 48.1053 41.7044 47.6148 41.5831 47.1387L65.006 23.7096L72.6172 24.5467Z" fill="#EEC892"/>
</g>
</svg>
