<svg width="91" height="96" viewBox="0 0 91 96" fill="none" xmlns="http://www.w3.org/2000/svg">
<path fill-rule="evenodd" clip-rule="evenodd" d="M17.7963 31.9775C18.5477 32.2866 18.9066 33.1468 18.5975 33.8994C18.2884 34.6507 17.4293 35.0097 16.6768 34.7005L11.3511 32.4973C10.5997 32.1882 10.2408 31.3291 10.5499 30.5766C10.8579 29.8252 11.7181 29.4663 12.4695 29.7754L17.7963 31.9775ZM39.7117 28.0573C39.7117 31.3465 42.378 34.0128 45.6661 34.0128C48.9553 34.0128 51.6216 31.3465 51.6216 28.0573C51.6216 24.7669 48.9553 22.1006 45.6661 22.1006C42.378 22.1006 39.7117 24.7669 39.7117 28.0573ZM45.6661 37.5185H54.0946C56.0003 37.5185 57.6397 38.3394 58.7801 39.8665L68.5794 52.9886C69.7707 54.5828 69.391 56.8416 67.74 57.9369L61.8921 61.8154C60.8108 62.532 59.3543 62.2704 58.6099 61.2087L58.4212 60.9401C57.7114 59.9271 57.8886 58.5505 58.8322 57.7516L61.0817 55.8471C61.5483 55.4511 61.5969 54.7507 61.187 54.2957L55.3496 47.8076C55.2153 47.6582 54.9699 47.7833 55.0104 47.9801L64.1683 91.7401C64.6314 93.9561 64.2864 95.9613 61.3677 95.9995C58.8021 96.032 57.1499 94.3567 56.3858 92.1141C56.3858 92.1118 56.3846 92.1106 56.3846 92.1083L47.4942 68.2259C46.8632 66.5333 44.4701 66.5333 43.8391 68.2259L34.9486 92.1083C34.9475 92.1095 34.9475 92.1118 34.9463 92.1129C34.1833 94.3567 32.5312 96.032 29.9656 95.9995C27.0457 95.9613 26.7019 93.9561 27.165 91.7401L36.3229 47.9801C36.3634 47.7833 36.118 47.6582 35.9837 47.8076L30.1462 54.2957C29.7364 54.7495 29.7838 55.4511 30.2516 55.8471L32.5011 57.7516C33.4447 58.5516 33.6218 59.9271 32.9121 60.9401L32.7234 61.2087C31.979 62.2704 30.5225 62.532 29.4411 61.8154L23.5933 57.9369C21.9411 56.8416 21.5625 54.5828 22.7539 52.9886L32.5532 39.8665C33.6936 38.3394 35.333 37.5185 37.2375 37.5185H45.6661ZM89.2791 43.6211C90.0953 43.6211 90.7564 44.2833 90.7564 45.0984C90.7564 45.9135 90.0953 46.5757 89.2791 46.5757H77.4143C76.5992 46.5757 75.937 45.9135 75.937 45.0984C75.937 44.2833 76.5992 43.6211 77.4143 43.6211H89.2791ZM75.4611 13.2089C76.0377 12.6324 76.9732 12.6324 77.5497 13.2089C78.1263 13.7855 78.1263 14.721 77.5497 15.2975L69.1594 23.689C68.5828 24.2656 67.6474 24.2656 67.0708 23.689C66.4942 23.1125 66.4942 22.177 67.0708 21.6016L75.4611 13.2089ZM44.1899 1.47731C44.1899 0.662241 44.851 0 45.6661 0C46.4823 0 47.1434 0.662241 47.1434 1.47731V13.3444C47.1434 14.1606 46.4823 14.8217 45.6661 14.8217C44.851 14.8217 44.1899 14.1606 44.1899 13.3444V1.47731ZM13.7835 15.2975C13.207 14.721 13.207 13.7855 13.7835 13.2101C14.3601 12.6324 15.2956 12.6324 15.871 13.2101L24.2613 21.6016C24.8379 22.1781 24.8379 23.1136 24.2613 23.6902C23.6847 24.2668 22.7504 24.2668 22.1738 23.6902L13.7835 15.2975ZM2.05305 46.5757C1.23799 46.5757 0.576904 45.9146 0.576904 45.0984C0.576904 44.2833 1.23799 43.6223 2.05305 43.6223H13.919C14.7341 43.6223 15.3951 44.2833 15.3951 45.0984C15.3951 45.9146 14.7341 46.5757 13.919 46.5757H2.05305ZM74.6484 34.6681C73.8958 34.9807 73.0333 34.6241 72.7219 33.8727C72.4093 33.1202 72.7659 32.2576 73.5172 31.945L78.8418 29.736C79.5932 29.4234 80.4557 29.78 80.7683 30.5326C81.0798 31.284 80.7243 32.1465 79.9718 32.4591L74.6484 34.6681ZM58.7847 17.2229C58.4756 17.9743 57.6153 18.3344 56.864 18.0252C56.1126 17.7161 55.7537 16.8559 56.0616 16.1034L58.2649 10.7765C58.574 10.0251 59.4342 9.66502 60.1856 9.97414C60.937 10.2833 61.2959 11.1435 60.9868 11.896L58.7847 17.2229ZM35.2381 16.1115C35.5507 16.8628 35.1941 17.7265 34.4427 18.038C33.6901 18.3506 32.8276 17.994 32.515 17.2426L30.3071 11.9169C29.9946 11.1655 30.3511 10.3029 31.1025 9.99035C31.8539 9.67776 32.7176 10.0343 33.0291 10.7869L35.2381 16.1115Z" fill="#EEC892"/>
</svg>
