<svg width="84" height="100" viewBox="0 0 84 100" fill="none" xmlns="http://www.w3.org/2000/svg">
<path d="M81.4581 47.3889C81.4104 47.3143 81.3664 47.2324 81.331 47.1517L78.6483 40.8986C77.1834 37.4822 76.2639 33.9693 75.9105 30.4576C75.4496 25.8503 74.3894 21.6844 72.7644 18.0809C72.6703 17.8718 72.5749 17.6676 72.4783 17.4634C66.9564 5.89138 54.186 1.97371 47.066 0.666592C35.6749 -1.42063 23.9414 1.43081 14.0237 8.70003L13.9259 8.77095C4.52909 15.6917 -0.628456 27.2173 0.467124 38.8529C0.921986 43.6913 2.16919 48.7401 4.1696 53.8524C6.46102 59.7118 9.62304 65.5063 13.5688 71.0784C16.4839 75.1966 21.1841 83.3095 20.0384 91.5374V100L54.9515 98.4716V97.3955C54.9515 91.2757 59.7446 86.2576 65.8608 85.9714L66.8206 85.9274C68.9128 85.8296 70.874 85.0629 72.3364 83.7632C72.9209 83.2459 73.4406 82.648 73.8783 81.9877C74.8321 80.5583 75.3334 78.8428 75.3334 77.0222V65.2459C75.3334 62.0203 77.3644 59.0882 80.3882 57.9522L80.8859 57.7664C80.892 57.7639 80.9006 57.7603 80.9067 57.7578C82.2566 57.276 83.0893 56.5302 83.45 55.4798C84.3585 52.8436 82.3202 48.7462 81.4581 47.3889ZM41.2457 47.4268C40.7737 47.4268 40.3189 47.3681 39.8897 47.2593V52.7433H21.1132V47.2593C23.1026 46.7653 24.5552 45.2075 24.5552 43.36C24.5552 41.5124 23.1026 39.9559 21.1132 39.4606V33.9779H26.5996C27.0936 35.966 28.6526 37.4174 30.5014 37.4174C32.3502 37.4174 33.908 35.966 34.402 33.9779H39.8897V39.4606C40.3189 39.353 40.7737 39.2943 41.2457 39.2943C43.8954 39.2943 46.0437 41.115 46.0437 43.36C46.0437 45.6062 43.8954 47.4268 41.2457 47.4268ZM48.8389 36.169L45.145 32.1156C46.2822 30.4099 46.3042 28.2811 45.0594 26.9177C43.8159 25.5519 41.692 25.3783 39.8872 26.3528L36.1909 22.2994L40.2455 18.6067C41.9524 19.7426 44.0825 19.7659 45.4495 18.5211C46.8141 17.2776 46.9889 15.1549 46.012 13.3514L50.0678 9.65744L53.7654 13.7108C54.0087 13.3416 54.3058 12.9906 54.6531 12.674C56.6132 10.8912 59.4267 10.7897 60.9392 12.449C62.4542 14.1082 62.0935 16.901 60.1347 18.6837C59.7862 19.0029 59.4108 19.2646 59.0207 19.4736L62.7171 23.527L48.8389 36.169Z" fill="#EEC892"/>
</svg>
