<svg width="41" height="41" viewBox="0 0 41 41" fill="none" xmlns="http://www.w3.org/2000/svg">
<path d="M0.25 20.167C0.25 31.2127 9.20431 40.167 20.25 40.167C31.2957 40.167 40.25 31.2127 40.25 20.167C40.25 9.1213 31.2957 0.166992 20.25 0.166992C9.20431 0.166992 0.25 9.1213 0.25 20.167Z" fill="#B0B0B0"/>
<path d="M14.75 30.167H10.5V16.792H14.75V30.167ZM12.625 14.917C11.25 14.917 10.25 13.917 10.25 12.542C10.25 11.167 11.375 10.167 12.625 10.167C14 10.167 15 11.167 15 12.542C15 13.917 14 14.917 12.625 14.917ZM30.25 30.167H26V22.917C26 20.792 25.125 20.167 23.875 20.167C22.625 20.167 21.375 21.167 21.375 23.042V30.167H17.125V16.792H21.125V18.667C21.5 17.792 23 16.417 25.125 16.417C27.5 16.417 30 17.792 30 21.917V30.167H30.25Z" fill="white"/>
</svg>
