<svg width="45" height="54" viewBox="0 0 45 54" fill="none" xmlns="http://www.w3.org/2000/svg">
<mask id="mask0_270_656" style="mask-type:luminance" maskUnits="userSpaceOnUse" x="0" y="7" width="45" height="47">
<path d="M0.5 7.36523H44.9364V53.7439H0.5V7.36523Z" fill="white"/>
</mask>
<g mask="url(#mask0_270_656)">
<path fill-rule="evenodd" clip-rule="evenodd" d="M22.7179 49.6025C22.6927 49.5883 22.6669 49.5741 22.6411 49.5612C17.7093 46.8767 8.78575 48.1361 5.19068 42.453C3.29609 39.4583 3.25805 35.1816 3.58628 31.7839C4.30852 24.3087 5.75815 18.3677 5.85939 10.4811H39.577C39.6782 18.3677 41.1278 24.3087 41.8501 31.7839C43.6247 50.1571 29.8867 45.6076 22.7179 49.6025ZM44.9331 31.4872C44.2554 24.4744 42.3324 16.0442 42.72 7.3877H2.71637C3.10393 16.0442 1.18097 24.4744 0.503224 31.4872L0.5 31.5285V37.7694C2.3617 53.6335 19.6103 48.5836 22.6411 53.6174C22.6669 53.66 22.6946 53.7006 22.7179 53.7451C25.5301 48.4947 43.0585 53.767 44.9364 37.7694V31.5285L44.9331 31.4872Z" fill="#28292A"/>
</g>
<path fill-rule="evenodd" clip-rule="evenodd" d="M22.7176 48.922C29.631 45.0689 42.8783 49.4565 41.1662 31.7398C40.4698 24.5316 39.0724 18.802 38.975 11.1973H6.46074C6.36337 18.802 4.96532 24.5316 4.26888 31.7398C3.95226 35.0156 3.98966 39.1401 5.81589 42.0278C9.30069 47.5362 17.9772 46.28 22.7176 48.922Z" fill="#28292A"/>
<path fill-rule="evenodd" clip-rule="evenodd" d="M24.8533 4.52836L29.5807 5.23705L26.1726 8.5845L26.9594 13.2939L22.7175 11.0923L18.4763 13.2939L19.2624 8.58514L15.8549 5.23705L20.5824 4.52836L22.7175 0.256836L24.8533 4.52836Z" fill="#28292A"/>
<path fill-rule="evenodd" clip-rule="evenodd" d="M22.7185 2.1084L24.2939 5.25787L27.78 5.78085L25.267 8.25L25.8467 11.7225L22.7192 10.0994L19.591 11.7225L20.1707 8.25L17.6577 5.78085L21.1438 5.25787L22.7185 2.1084Z" fill="#EC0000"/>
<path fill-rule="evenodd" clip-rule="evenodd" d="M12.9665 7.01472L16.2636 7.50868L13.8867 9.84435L14.4348 13.1292L11.4769 11.5938L8.51829 13.1292L9.06642 9.84499L6.69012 7.50868L9.98727 7.01537L11.4769 4.03613L12.9665 7.01472Z" fill="#28292A"/>
<path fill-rule="evenodd" clip-rule="evenodd" d="M11.4771 5.5918L12.4889 7.616L14.7285 7.95132L13.1138 9.53767L13.4865 11.7689L11.4771 10.7261L9.46776 11.7689L9.83984 9.53767L8.22577 7.95132L10.4654 7.616L11.4771 5.5918Z" fill="#EC0000"/>
<path fill-rule="evenodd" clip-rule="evenodd" d="M35.4495 7.01472L38.7473 7.50868L36.3697 9.84435L36.9185 13.1292L33.9599 11.5938L31.002 13.1292L31.5501 9.84499L29.1732 7.50868L32.4709 7.01537L33.9599 4.03613L35.4495 7.01472Z" fill="#28292A"/>
<path fill-rule="evenodd" clip-rule="evenodd" d="M33.9594 5.5918L34.9712 7.616L37.2114 7.95132L35.5967 9.53767L35.9688 11.7689L33.96 10.7261L31.9507 11.7689L32.3228 9.53767L30.708 7.95132L32.9483 7.616L33.9594 5.5918Z" fill="#EC0000"/>
<path d="M21.8889 38.1342L21.7903 39.6393L21.9534 40.448L22.2436 41.1122L24.7605 41.1792L27.2696 41.0947L28.1266 41.3037L29.6794 41.4597L31.8849 41.5004L33.29 40.987L34.6184 39.1924L35.8159 36.6156L36.5027 35.1743L36.8657 33.6931L36.718 31.6637L36.6381 30.474L36.3363 28.6652L35.9094 26.7203L34.9873 24.7515L34.8222 22.6293L34.0471 20.8553L32.008 18.737L29.2932 17.9825L26.5596 18.1605L24.9294 17.6497L23.3405 16.9268L23.287 16.9023L20.9333 17.2931L20.881 17.3015L19.494 18.4068L17.6174 19.0194L16.536 19.2006L16.5044 19.2058L15.1941 19.8648L15.1754 19.8738L13.4858 21.3112L12.8616 21.7504L11.9653 21.8606L10.1713 22.7409L9.50901 23.9538L8.72551 28.4994L8.71777 28.5452L9.78436 33.0495L10.7026 35.1498L10.7194 35.1969L12.8403 37.0051L12.9035 37.0625L14.6588 37.1315L16.3722 36.8284L17.3859 37.9859L17.4324 38.0388L19.4346 38.4096L20.9958 38.0833L21.8889 38.1342Z" fill="#EC0000"/>
<path d="M19.3371 36.3457L18.876 36.3696L18.4878 36.3896L17.7166 36.1658L17.712 36.2413L18.4162 36.614L18.876 36.6798L19.3506 36.7475L20.7828 36.1858L20.7545 36.0762L19.3371 36.3457Z" fill="#28292A"/>
<path d="M16.2531 20.8307L16.2247 20.8281L15.6527 21.1854L15.7153 21.3027L16.2531 21.1196L16.2776 21.1106L16.8309 20.9958L16.8199 20.8733L16.2531 20.8307Z" fill="#28292A"/>
<path d="M16.3269 20.4637L17.3774 20.3476L17.3638 20.2354L16.2527 20.14L16.2308 20.1387L15.1275 20.77L15.1829 20.848L16.2527 20.4882L16.3269 20.4637Z" fill="#28292A"/>
<path d="M12.1483 34.87L13.2845 35.1685L13.5586 35.1202L14.2395 34.9996L14.9689 34.3921L14.9424 34.2773L14.1273 34.6165L13.5586 34.7165L13.2684 34.7681L12.2095 34.6604L12.1483 34.87Z" fill="#28292A"/>
<path d="M18.875 35.2406L18.2985 35.2632L16.9514 35.0665L16.9572 35.1936L18.2314 35.5637L18.875 35.6095L19.1394 35.6288L20.7986 35.2026L20.7528 35.0459L19.1297 35.229L18.875 35.2406Z" fill="#28292A"/>
<path d="M13.8516 35.5491L13.5588 35.562L12.9533 35.5903L12.9436 35.7709L13.5588 35.8612L13.9077 35.9128L14.6712 35.5091L14.6106 35.3691L13.8516 35.5491Z" fill="#28292A"/>
<path d="M33.2367 34.5014L32.5938 34.5813L31.7439 34.6851L30.4477 34.4246L30.4032 34.5259L31.7329 35.0888L32.5938 34.9824L33.3167 34.8934L34.4026 34.3182L34.3394 34.168L33.2367 34.5014Z" fill="#28292A"/>
<path d="M33.494 32.8779L32.5932 32.945L32.0921 32.9824L30.4568 33.6582L30.4613 33.782L32.1566 33.3764L32.5932 33.3435L33.454 33.279L34.7289 33.6395L34.7205 33.5105L33.494 32.8779Z" fill="#28292A"/>
<path d="M36.1484 31.9894L35.9633 32.4079L35.6918 32.4008L35.5177 32.139L35.5003 31.5889L35.3849 31.5838L35.2649 32.119L35.3829 33.2572L35.1979 34.2238L34.6691 34.9538L33.0357 35.776L32.5933 35.7966L31.0966 35.8643L29.7843 35.1337L29.1291 33.5944L28.9621 29.2849L28.2154 25.9967L28.1818 25.3938L28.3276 23.2019L28.1831 23.1774L27.7878 24.431L27.3964 24.4607L27.1314 23.977L26.6168 22.984L26.5246 23.0317L26.9192 24.1215L27.1352 25.063L27.4893 26.116L27.7072 29.4596L28.138 33.666L28.0419 35.4471L27.6524 36.0887L26.5626 36.5272L24.7454 36.7071L24.6139 36.7194L23.1249 36.297L22.5065 35.5399L22.2943 34.988L22.1473 34.6036L21.6179 32.6497L20.9479 28.5368L20.8015 26.0457L20.6654 24.6335L20.7589 23.3167L20.6428 23.2832L20.2172 24.5871L20.3469 25.5092L20.0438 25.555L19.3009 24.1918L19.1629 24.2311L20.145 27.1729L20.0992 28.6987L20.6383 32.6955L21.0826 34.7951L21.3999 35.7631L21.3522 36.4763L20.7434 37.1424L19.3273 37.4945L18.8753 37.3855L17.6475 37.0876L16.7144 36.1126L16.2527 34.9912L15.9941 34.3644L15.286 31.7508L14.9494 29.0288L14.843 26.8273L14.2033 25.0488L14.0421 25.0604L14.1337 26.354L13.5591 25.8529L13.3805 25.6969L13.2412 25.8117L13.5591 26.2102L14.1924 27.0046L14.5238 27.3819L14.4722 29.1146L14.5032 31.8353L15.2422 34.474L15.5956 35.36L15.2602 36.0268L14.3413 36.3737L13.5591 36.288L12.9317 36.219L11.3846 34.7777L10.4425 32.7987L9.29403 28.4994L9.83958 24.6109L10.7314 24.0525L11.4988 23.9854L11.482 23.8829L10.7424 23.8094L9.94985 24.1047L10.1826 23.6985L11.355 23.2277L12.4467 23.26L12.5041 23.1329L11.3324 22.8969L10.4051 23.1587L10.4657 23.0485L12.0772 22.2488L13.0052 22.1347L13.5591 21.7446L13.7216 21.6311L13.7281 21.6265L15.3911 20.2111L16.2527 19.7784L16.6325 19.5875L17.7004 19.4082L17.7178 19.405L18.8753 19.0278L19.6511 18.7744L19.6846 18.7634L21.0491 17.6762L22.2943 17.4698L23.2313 17.315L24.7454 18.0037L24.7783 18.0186L24.7931 18.0244L26.4756 18.5525L26.5097 18.5635L29.2226 18.3745L30.0281 18.5583L30.05 18.5648L29.6231 18.7034L28.8557 19.6069L28.9421 19.6984L29.8933 19.0968L30.7884 18.8608L31.6479 19.1393L31.8788 19.3057L31.5583 19.3109L30.5465 19.5211L29.4393 20.3181L29.4954 20.4503L30.6123 19.8287L31.5686 19.7113L32.3399 19.8164L32.5933 20.0499L33.7102 21.0778L34.4311 22.7273L34.5685 24.4981L34.5034 25.8587L34.7316 27.7965L34.9619 28.6948L35.0276 28.6916L34.9135 27.783L34.9257 26.4346L35.1792 26.096L35.5287 26.8357L35.9324 28.7657L36.1903 30.5346L36.24 31.5173L36.1484 31.9894ZM35.3268 36.5214L34.6955 37.3275L34.2848 38.0639L33.8198 38.3341L33.4832 37.7054L33.38 37.6893L33.5999 38.6714L33.5767 39.1705L33.4806 39.3659L33.3684 38.6314L33.0215 37.9459L32.6978 37.5455L32.6036 37.5712L32.8196 38.0394L32.9647 38.6598L32.9867 39.4774L32.8145 40.1687L32.6913 40.3261L32.5933 40.3777L31.8111 40.7904L29.7663 40.86L28.1386 40.6427L27.9729 40.317L28.0845 39.2762L27.989 38.7062L27.5995 38.2361L26.7154 38.0684L24.7454 37.993L23.2693 37.9369L23.9806 37.6822L24.7454 37.7228L24.8692 37.7292L27.1707 37.637L28.7513 37.8034L30.3066 37.6286L31.0508 37.0154L32.5933 36.878L33.3929 36.8077L35.0786 35.8411L35.6325 34.9912L35.7015 35.4626L35.3268 36.5214ZM26.9979 40.3435L26.5716 40.6446L26.0899 40.6949L24.748 40.7626H24.7454L22.5065 40.6743L22.3498 40.2319L22.3079 39.6864L22.4201 38.8552L22.7354 38.3219L24.7454 38.3999L26.0809 38.4534L26.7973 38.6075L27.1095 38.89L27.1836 39.422L26.9979 40.3435ZM37.2279 33.6641L37.0796 31.6379L37.0002 30.4475L36.999 30.4333L36.9957 30.414L36.6946 28.6052L36.6907 28.5884L36.2632 26.6422L36.2535 26.5997L36.238 26.5661L35.3443 24.6561L35.1837 22.5996L35.1792 22.5384L35.156 22.4849L34.3808 20.7102L34.355 20.6522L34.3086 20.6045L32.5933 18.8227L32.2696 18.4861L32.1999 18.4145L32.1064 18.3881L29.3922 17.6336L29.3342 17.6175L29.271 17.6214L26.6084 17.7961L25.0537 17.3086L24.7454 17.168L23.4925 16.598L23.4376 16.5735L23.3377 16.5283L23.2306 16.5457L22.2943 16.7011L20.8776 16.9359L20.8763 16.9372L20.824 16.9455L20.7318 16.961L20.6596 17.0178L19.3235 18.0824L18.8753 18.2294L17.5282 18.6686L16.479 18.844L16.4474 18.8498L16.39 18.8595L16.3449 18.8827L16.2527 18.9285L15.0339 19.5417L15.0345 19.5424L15.0158 19.5514L14.9778 19.5714L14.9449 19.5991L13.5591 20.7773L13.2689 21.0249L12.733 21.4015L11.9231 21.5008L11.8676 21.5079L11.8096 21.5369L10.0156 22.4165L9.90987 22.4687L9.85634 22.5667L9.19472 23.7804L9.1657 23.832L9.15603 23.8913L8.37188 28.4369V28.4394L8.36415 28.4852L8.35254 28.5562L8.36866 28.6252L9.43525 33.1295L9.44299 33.1617L9.45589 33.1914L10.3716 35.2852L10.3825 35.3168L10.4148 35.4065L10.4883 35.4684L12.6008 37.2695H12.6002L12.6634 37.3268L12.7608 37.4152L12.8923 37.4203L13.5591 37.4468L14.6476 37.49L14.6857 37.4913L14.7237 37.4848L16.2378 37.2172L16.2527 37.2333L17.1181 38.2219L17.1645 38.2748L17.2483 38.3696L17.3696 38.3921L18.8753 38.6714L19.3712 38.7629L19.4415 38.7765L19.5105 38.7616L21.0298 38.4437L21.5076 38.4715L21.4328 39.6161L21.4296 39.6644L21.4386 39.7089L21.6017 40.5182L21.6095 40.5537L21.625 40.5898L21.9151 41.254L22.0074 41.4649L22.2363 41.4713L22.2943 41.4726L24.7454 41.5384L24.7532 41.539L24.7757 41.5378L27.2326 41.4552L28.0445 41.6525L28.0658 41.6583L28.0935 41.6603L29.6463 41.8163L29.6753 41.8189L31.8801 41.8589L31.9478 41.8608L32.0097 41.8376L32.5933 41.6242L33.4149 41.3243L33.5174 41.2869L33.5825 41.1992L34.9103 39.4059L34.9335 39.3743L34.9483 39.3427L36.1458 36.7665H36.1445L36.83 35.3278L36.8474 35.291L36.8558 35.2575L37.2182 33.7756L37.2318 33.7221L37.2279 33.6641Z" fill="#28292A"/>
<path d="M22.294 18.3003L22.7351 18.2455L23.794 18.4699L23.7869 18.33L22.7841 17.8489L22.7519 17.8418L22.294 17.8985L21.6331 17.9804L20.6136 18.8594L20.6768 18.9819L21.7595 18.3661L22.294 18.3003Z" fill="#28292A"/>
<path d="M23.3481 18.915L22.2944 18.7131L22.2344 18.7021L21.2323 19.3264L21.2523 19.4089L22.2944 19.0633L22.3002 19.0607L23.3565 19.0201L23.3481 18.915Z" fill="#28292A"/>
<path d="M24.9654 35.5874L24.7455 35.5649L23.3732 35.4237L23.3604 35.5468L24.7455 35.9266L24.9718 35.9885L26.13 35.8099L27.1398 35.1264L27.0883 35.0322L26.0249 35.4256L24.9654 35.5874Z" fill="#28292A"/>
<path d="M24.7452 34.1676L24.4241 34.1941L23.1028 34.2592L23.097 34.3688L24.4512 34.5913L24.7452 34.5674L26.0472 34.4604L26.8339 34.2037L26.8539 34.0967L26.0433 34.0625L24.7452 34.1676Z" fill="#28292A"/>
</svg>
