<svg width="49" height="45" viewBox="0 0 49 45" fill="none" xmlns="http://www.w3.org/2000/svg">
<rect width="49" height="45" rx="12" fill="url(#paint0_linear_700_1080)"/>
<path fill-rule="evenodd" clip-rule="evenodd" d="M18.6689 14.9824C18.6958 14.7552 18.7752 14.5375 18.9011 14.3465C19.0269 14.1554 19.1956 13.9964 19.3937 13.8821C19.5918 13.7678 19.8139 13.7014 20.0422 13.688C20.2706 13.6747 20.4989 13.7149 20.7089 13.8054C21.7709 14.2594 24.1509 15.3384 27.1709 17.0814C30.1919 18.8254 32.3169 20.3484 33.2399 21.0394C34.0279 21.6304 34.0299 22.8024 33.2409 23.3954C32.3269 24.0824 30.2279 25.5854 27.1709 27.3514C24.1109 29.1174 21.7589 30.1834 20.7069 30.6314C19.8009 31.0184 18.7869 30.4314 18.6689 29.4544C18.5309 28.3124 18.2729 25.7194 18.2729 22.2174C18.2729 18.7174 18.5299 16.1254 18.6689 14.9824Z" fill="black"/>
<defs>
<linearGradient id="paint0_linear_700_1080" x1="24.5" y1="0" x2="24.5" y2="45" gradientUnits="userSpaceOnUse">
<stop stop-color="#D8D8D8"/>
<stop offset="0.795" stop-color="#999999"/>
</linearGradient>
</defs>
</svg>
