<svg width="24" height="24" viewBox="0 0 24 24" fill="none" xmlns="http://www.w3.org/2000/svg">
<path fill-rule="evenodd" clip-rule="evenodd" d="M5.66895 4.75972C5.69576 4.53257 5.77524 4.31481 5.90106 4.1238C6.02689 3.93278 6.19558 3.77379 6.3937 3.65948C6.59182 3.54518 6.81389 3.47871 7.04223 3.46539C7.27058 3.45206 7.49888 3.49224 7.70895 3.58272C8.77095 4.03672 11.1509 5.11572 14.1709 6.85872C17.1919 8.60272 19.3169 10.1257 20.2399 10.8167C21.0279 11.4077 21.0299 12.5797 20.2409 13.1727C19.3269 13.8597 17.2279 15.3627 14.1709 17.1287C11.1109 18.8947 8.75895 19.9607 7.70695 20.4087C6.80095 20.7957 5.78695 20.2087 5.66895 19.2317C5.53095 18.0897 5.27295 15.4967 5.27295 11.9947C5.27295 8.49472 5.52995 5.90272 5.66895 4.75972Z" fill="#E9E9E9"/>
</svg>
