<svg width="41" height="41" viewBox="0 0 41 41" fill="none" xmlns="http://www.w3.org/2000/svg">
<path d="M0.5 20.167C0.5 31.2127 9.45431 40.167 20.5 40.167C31.5457 40.167 40.5 31.2127 40.5 20.167C40.5 9.1213 31.5457 0.166992 20.5 0.166992C9.45431 0.166992 0.5 9.1213 0.5 20.167Z" fill="#B0B0B0"/>
<path d="M22.4027 18.6356L29.8482 10.167H28.0838L21.619 17.5202L16.4555 10.167H10.5L18.3082 21.2863L10.5 30.167H12.2644L19.0915 22.4018L24.5445 30.167H30.5L22.4023 18.6356H22.4027ZM19.9861 21.3843L19.195 20.2771L12.9002 11.4667H15.6102L20.6902 18.5769L21.4813 19.6842L28.0847 28.9264H25.3746L19.9861 21.3847V21.3843Z" fill="white"/>
</svg>
